<svg xmlns="http://www.w3.org/2000/svg" viewBox="0 0 500 500"><g id="freepik--background-complete--inject-12"><rect x="410.2" y="404.05" width="51.58" height="5.86" style="fill:#c7c7c7"></rect><rect x="432.93" y="113.57" width="6.11" height="290.47" style="fill:#c7c7c7"></rect><rect x="432.93" y="113.57" width="6.11" height="30.96" style="fill:#a6a6a6"></rect><polygon points="468.33 131.5 403.63 131.5 408.33 116.05 408.5 115.5 422.18 70.54 449.78 70.54 463.47 115.51 463.47 115.52 463.62 116.03 468.33 131.5" style="fill:#ebebeb"></polygon><path d="M424.47,80.93a.44.44,0,0,1-.43.44.44.44,0,0,1-.44-.44.44.44,0,0,1,.44-.43A.43.43,0,0,1,424.47,80.93Z" style="fill:#fff"></path><path d="M432.44,80.93a.44.44,0,0,1-.43.44.44.44,0,0,1-.44-.44.44.44,0,0,1,.44-.43A.43.43,0,0,1,432.44,80.93Z" style="fill:#fff"></path><path d="M440.41,80.93a.44.44,0,0,1-.44.44.44.44,0,0,1-.43-.44.43.43,0,0,1,.43-.43A.44.44,0,0,1,440.41,80.93Z" style="fill:#fff"></path><path d="M448.38,80.93a.44.44,0,0,1-.44.44.44.44,0,0,1-.43-.44.43.43,0,0,1,.43-.43A.44.44,0,0,1,448.38,80.93Z" style="fill:#fff"></path><path d="M428.46,75.35a.44.44,0,0,1-.44.44.44.44,0,0,1,0-.87A.44.44,0,0,1,428.46,75.35Z" style="fill:#fff"></path><path d="M436.42,75.35a.43.43,0,0,1-.43.44.44.44,0,1,1,0-.87A.43.43,0,0,1,436.42,75.35Z" style="fill:#fff"></path><path d="M444.39,75.35a.43.43,0,0,1-.43.44.44.44,0,1,1,0-.87A.43.43,0,0,1,444.39,75.35Z" style="fill:#fff"></path><path d="M416.51,92.52a.44.44,0,0,1-.44.43.43.43,0,0,1-.43-.43.44.44,0,0,1,.43-.44A.44.44,0,0,1,416.51,92.52Z" style="fill:#fff"></path><path d="M424.47,92.52A.43.43,0,0,1,424,93a.44.44,0,0,1-.44-.43.44.44,0,0,1,.44-.44A.44.44,0,0,1,424.47,92.52Z" style="fill:#fff"></path><path d="M432.44,92.52A.43.43,0,0,1,432,93a.44.44,0,0,1-.44-.43.44.44,0,0,1,.44-.44A.44.44,0,0,1,432.44,92.52Z" style="fill:#fff"></path><path d="M440.41,92.52A.44.44,0,0,1,440,93a.43.43,0,0,1-.43-.43.44.44,0,0,1,.43-.44A.44.44,0,0,1,440.41,92.52Z" style="fill:#fff"></path><path d="M448.38,92.52a.44.44,0,0,1-.44.43.43.43,0,0,1-.43-.43.44.44,0,0,1,.43-.44A.44.44,0,0,1,448.38,92.52Z" style="fill:#fff"></path><path d="M456.34,92.52a.43.43,0,0,1-.43.43.44.44,0,0,1-.44-.43.44.44,0,0,1,.44-.44A.44.44,0,0,1,456.34,92.52Z" style="fill:#fff"></path><path d="M420.49,86.94a.43.43,0,0,1-.43.43.44.44,0,0,1-.44-.43.44.44,0,0,1,.44-.44A.44.44,0,0,1,420.49,86.94Z" style="fill:#fff"></path><path d="M428.46,86.94a.44.44,0,0,1-.44.43.43.43,0,0,1-.43-.43.44.44,0,0,1,.43-.44A.44.44,0,0,1,428.46,86.94Z" style="fill:#fff"></path><path d="M436.42,86.94a.43.43,0,0,1-.43.43.44.44,0,0,1-.44-.43.44.44,0,0,1,.44-.44A.44.44,0,0,1,436.42,86.94Z" style="fill:#fff"></path><path d="M444.39,86.94a.43.43,0,0,1-.43.43.44.44,0,0,1-.44-.43.44.44,0,0,1,.44-.44A.44.44,0,0,1,444.39,86.94Z" style="fill:#fff"></path><path d="M452.36,86.94a.44.44,0,0,1-.44.43.43.43,0,0,1-.43-.43.44.44,0,0,1,.43-.44A.44.44,0,0,1,452.36,86.94Z" style="fill:#fff"></path><path d="M416.51,104.1a.44.44,0,0,1-.44.44.44.44,0,0,1-.43-.44.43.43,0,0,1,.43-.43A.44.44,0,0,1,416.51,104.1Z" style="fill:#fff"></path><path d="M424.47,104.1a.44.44,0,0,1-.43.44.44.44,0,0,1-.44-.44.44.44,0,0,1,.44-.43A.43.43,0,0,1,424.47,104.1Z" style="fill:#fff"></path><path d="M432.44,104.1a.44.44,0,0,1-.43.44.44.44,0,0,1-.44-.44.44.44,0,0,1,.44-.43A.43.43,0,0,1,432.44,104.1Z" style="fill:#fff"></path><path d="M440.41,104.1a.44.44,0,0,1-.44.44.44.44,0,0,1-.43-.44.43.43,0,0,1,.43-.43A.44.44,0,0,1,440.41,104.1Z" style="fill:#fff"></path><path d="M448.38,104.1a.44.44,0,0,1-.44.44.44.44,0,0,1-.43-.44.43.43,0,0,1,.43-.43A.44.44,0,0,1,448.38,104.1Z" style="fill:#fff"></path><path d="M456.34,104.1a.44.44,0,0,1-.43.44.44.44,0,0,1-.44-.44.44.44,0,0,1,.44-.43A.43.43,0,0,1,456.34,104.1Z" style="fill:#fff"></path><path d="M420.49,98.52a.44.44,0,0,1-.43.44.44.44,0,0,1-.44-.44.44.44,0,0,1,.44-.43A.43.43,0,0,1,420.49,98.52Z" style="fill:#fff"></path><path d="M428.46,98.52A.44.44,0,0,1,428,99a.44.44,0,0,1-.43-.44.43.43,0,0,1,.43-.43A.44.44,0,0,1,428.46,98.52Z" style="fill:#fff"></path><path d="M436.42,98.52A.44.44,0,0,1,436,99a.44.44,0,0,1-.44-.44.44.44,0,0,1,.44-.43A.43.43,0,0,1,436.42,98.52Z" style="fill:#fff"></path><path d="M444.39,98.52A.44.44,0,0,1,444,99a.44.44,0,0,1-.44-.44.44.44,0,0,1,.44-.43A.43.43,0,0,1,444.39,98.52Z" style="fill:#fff"></path><path d="M452.36,98.52a.44.44,0,0,1-.44.44.44.44,0,0,1-.43-.44.43.43,0,0,1,.43-.43A.44.44,0,0,1,452.36,98.52Z" style="fill:#fff"></path><path d="M408.54,115.68a.41.41,0,0,1-.21.37l.17-.55A.39.39,0,0,1,408.54,115.68Z" style="fill:#fff"></path><path d="M416.51,115.69a.44.44,0,0,1-.44.43.43.43,0,0,1-.43-.43.44.44,0,0,1,.43-.44A.44.44,0,0,1,416.51,115.69Z" style="fill:#fff"></path><path d="M424.47,115.69a.43.43,0,0,1-.43.43.44.44,0,0,1-.44-.43.44.44,0,0,1,.44-.44A.44.44,0,0,1,424.47,115.69Z" style="fill:#fff"></path><path d="M432.44,115.69a.43.43,0,0,1-.43.43.44.44,0,0,1-.44-.43.44.44,0,0,1,.44-.44A.44.44,0,0,1,432.44,115.69Z" style="fill:#fff"></path><path d="M440.41,115.69a.44.44,0,0,1-.44.43.43.43,0,0,1-.43-.43.44.44,0,0,1,.43-.44A.44.44,0,0,1,440.41,115.69Z" style="fill:#fff"></path><path d="M448.38,115.69a.44.44,0,0,1-.44.43.43.43,0,0,1-.43-.43.44.44,0,0,1,.43-.44A.44.44,0,0,1,448.38,115.69Z" style="fill:#fff"></path><path d="M456.34,115.69a.43.43,0,0,1-.43.43.44.44,0,0,1-.44-.43.44.44,0,0,1,.44-.44A.44.44,0,0,1,456.34,115.69Z" style="fill:#fff"></path><path d="M463.62,116a.41.41,0,0,1-.18-.35.41.41,0,0,1,0-.16Z" style="fill:#fff"></path><path d="M412.52,110.11a.43.43,0,0,1-.43.43.44.44,0,0,1-.44-.43.44.44,0,0,1,.44-.44A.44.44,0,0,1,412.52,110.11Z" style="fill:#fff"></path><circle cx="420.06" cy="110.11" r="0.43" style="fill:#fff"></circle><path d="M428.46,110.11a.44.44,0,0,1-.44.43.43.43,0,0,1-.43-.43.44.44,0,0,1,.43-.44A.44.44,0,0,1,428.46,110.11Z" style="fill:#fff"></path><path d="M436.42,110.11a.43.43,0,0,1-.43.43.44.44,0,0,1-.44-.43.44.44,0,0,1,.44-.44A.44.44,0,0,1,436.42,110.11Z" style="fill:#fff"></path><path d="M444.39,110.11a.43.43,0,0,1-.43.43.44.44,0,0,1-.44-.43.44.44,0,0,1,.44-.44A.44.44,0,0,1,444.39,110.11Z" style="fill:#fff"></path><path d="M452.36,110.11a.44.44,0,0,1-.44.43.43.43,0,0,1-.43-.43.44.44,0,0,1,.43-.44A.44.44,0,0,1,452.36,110.11Z" style="fill:#fff"></path><circle cx="459.89" cy="110.11" r="0.43" style="fill:#fff"></circle><path d="M408.54,127.27a.44.44,0,1,1-.87,0,.44.44,0,0,1,.87,0Z" style="fill:#fff"></path><path d="M416.51,127.27a.44.44,0,0,1-.44.44.44.44,0,0,1-.43-.44.43.43,0,0,1,.43-.43A.44.44,0,0,1,416.51,127.27Z" style="fill:#fff"></path><path d="M424.47,127.27a.44.44,0,0,1-.43.44.44.44,0,0,1-.44-.44.44.44,0,0,1,.44-.43A.43.43,0,0,1,424.47,127.27Z" style="fill:#fff"></path><path d="M432.44,127.27a.44.44,0,0,1-.43.44.44.44,0,0,1-.44-.44.44.44,0,0,1,.44-.43A.43.43,0,0,1,432.44,127.27Z" style="fill:#fff"></path><path d="M440.41,127.27a.44.44,0,0,1-.44.44.44.44,0,0,1-.43-.44.43.43,0,0,1,.43-.43A.44.44,0,0,1,440.41,127.27Z" style="fill:#fff"></path><path d="M448.38,127.27a.44.44,0,0,1-.44.44.44.44,0,0,1-.43-.44.43.43,0,0,1,.43-.43A.44.44,0,0,1,448.38,127.27Z" style="fill:#fff"></path><path d="M456.34,127.27a.44.44,0,0,1-.43.44.44.44,0,0,1-.44-.44.44.44,0,0,1,.44-.43A.43.43,0,0,1,456.34,127.27Z" style="fill:#fff"></path><path d="M464.31,127.27a.44.44,0,0,1-.44.44.44.44,0,0,1-.43-.44.43.43,0,0,1,.43-.43A.44.44,0,0,1,464.31,127.27Z" style="fill:#fff"></path><path d="M412.52,121.69a.44.44,0,0,1-.43.44.44.44,0,0,1-.44-.44.44.44,0,0,1,.44-.43A.43.43,0,0,1,412.52,121.69Z" style="fill:#fff"></path><circle cx="420.06" cy="121.69" r="0.43" style="fill:#fff"></circle><path d="M428.46,121.69a.44.44,0,0,1-.44.44.44.44,0,0,1-.43-.44.43.43,0,0,1,.43-.43A.44.44,0,0,1,428.46,121.69Z" style="fill:#fff"></path><path d="M436.42,121.69a.44.44,0,0,1-.43.44.44.44,0,0,1-.44-.44.44.44,0,0,1,.44-.43A.43.43,0,0,1,436.42,121.69Z" style="fill:#fff"></path><path d="M444.39,121.69a.44.44,0,0,1-.43.44.44.44,0,0,1-.44-.44.44.44,0,0,1,.44-.43A.43.43,0,0,1,444.39,121.69Z" style="fill:#fff"></path><path d="M452.36,121.69a.44.44,0,0,1-.44.44.44.44,0,0,1-.43-.44.43.43,0,0,1,.43-.43A.44.44,0,0,1,452.36,121.69Z" style="fill:#fff"></path><circle cx="459.89" cy="121.69" r="0.43" style="fill:#fff"></circle><rect x="85.51" y="141.38" width="33.23" height="33.23" transform="translate(260.12 55.87) rotate(90)" style="fill:#dbdbdb"></rect><rect x="90.66" y="146.53" width="22.93" height="22.93" transform="translate(260.12 55.87) rotate(90)" style="fill:#fff"></rect><polygon points="90.66 146.53 113.59 146.53 113.59 169.46 90.66 146.53" style="fill:#ebebeb"></polygon><rect x="44.64" y="141.38" width="33.23" height="33.23" transform="translate(219.25 96.73) rotate(90)" style="fill:#dbdbdb"></rect><rect x="49.8" y="146.53" width="22.93" height="22.93" transform="translate(219.25 96.73) rotate(90)" style="fill:#fff"></rect><polygon points="56.53 146.53 72.72 146.53 72.72 162.72 56.53 146.53" style="fill:#ebebeb"></polygon><rect x="60.12" y="167.1" width="43.43" height="74.37" transform="translate(286.11 122.45) rotate(90)" style="fill:#dbdbdb"></rect><rect x="65.49" y="172.52" width="32.69" height="63.52" transform="translate(286.11 122.45) rotate(90)" style="fill:#fff"></rect><polygon points="71.95 187.94 113.59 187.94 113.59 209.37 71.95 187.94" style="fill:#ebebeb"></polygon><rect x="44.64" y="59.25" width="74.37" height="74.37" transform="translate(178.27 14.61) rotate(90)" style="fill:#dbdbdb"></rect><rect x="50.07" y="64.68" width="63.52" height="63.51" style="fill:#fff"></rect><path d="M113.59,110.41c-9.65-9.6-37-36.83-45.8-45.73h45.8Z" style="fill:#ebebeb"></path></g><g id="freepik--Floor--inject-12"><polygon points="36.71 409.91 90.03 409.67 143.35 409.58 250 409.41 356.64 409.58 409.97 409.67 463.29 409.91 409.97 410.15 356.64 410.24 250 410.41 143.35 410.24 90.03 410.15 36.71 409.91" style="fill:#263238"></polygon></g><g id="freepik--Shadows--inject-12"><ellipse cx="343.82" cy="440.9" rx="130.22" ry="19.49" style="fill:#ebebeb"></ellipse><ellipse cx="79.89" cy="440.9" rx="55.53" ry="12.54" style="fill:#ebebeb"></ellipse></g><g id="freepik--Notebook--inject-12"><rect x="71.52" y="84.69" width="229.91" height="325.22" style="fill:#C53F3F"></rect><polygon points="99.5 409.91 82.88 409.91 71.52 84.69 88.14 84.69 99.5 409.91" style="fill:#c7c7c7"></polygon><polygon points="329.41 409.91 99.5 409.91 88.14 84.69 318.06 84.69 329.41 409.91" style="fill:#ebebeb"></polygon><polygon points="106.4 134.19 131 133.95 155.6 133.81 204.81 133.69 254.03 133.81 278.64 133.95 303.25 134.19 278.66 134.44 254.06 134.57 204.85 134.69 155.63 134.57 131.02 134.43 106.4 134.19" style="fill:#dbdbdb"></polygon><polygon points="106.96 150.15 131.56 149.91 156.16 149.77 205.37 149.65 254.59 149.77 279.2 149.91 303.81 150.15 279.21 150.4 254.61 150.54 205.4 150.65 156.19 150.53 131.57 150.4 106.96 150.15" style="fill:#dbdbdb"></polygon><polygon points="107.52 166.11 132.12 165.87 156.72 165.73 205.93 165.62 255.14 165.73 279.75 165.87 304.37 166.11 279.77 166.36 255.17 166.5 205.96 166.61 156.74 166.5 132.13 166.36 107.52 166.11" style="fill:#dbdbdb"></polygon><polygon points="108.07 182.08 132.67 181.83 157.27 181.69 206.48 181.58 255.7 181.69 280.31 181.83 304.93 182.08 280.33 182.32 255.73 182.46 206.52 182.58 157.3 182.46 132.69 182.32 108.07 182.08" style="fill:#dbdbdb"></polygon><polygon points="108.63 198.04 133.23 197.79 157.83 197.66 207.04 197.54 256.26 197.65 280.87 197.79 305.49 198.04 280.89 198.28 256.29 198.42 207.08 198.54 157.86 198.42 133.25 198.28 108.63 198.04" style="fill:#dbdbdb"></polygon><polygon points="109.19 214 133.79 213.76 158.39 213.62 207.6 213.5 256.81 213.62 281.43 213.76 306.04 214 281.44 214.25 256.84 214.38 207.63 214.5 158.42 214.38 133.8 214.24 109.19 214" style="fill:#dbdbdb"></polygon><polygon points="109.75 229.96 134.34 229.72 158.95 229.58 208.16 229.46 257.37 229.58 281.98 229.72 306.6 229.96 282 230.21 257.4 230.35 208.19 230.46 158.97 230.34 134.36 230.21 109.75 229.96" style="fill:#dbdbdb"></polygon><polygon points="110.3 245.92 134.9 245.68 159.5 245.54 208.71 245.43 257.93 245.54 282.54 245.68 307.16 245.92 282.56 246.17 257.96 246.31 208.75 246.42 159.53 246.31 134.92 246.17 110.3 245.92" style="fill:#dbdbdb"></polygon><polygon points="110.86 261.89 135.46 261.64 160.06 261.5 209.27 261.39 258.49 261.5 283.1 261.64 307.71 261.89 283.12 262.13 258.51 262.27 209.31 262.39 160.09 262.27 135.48 262.13 110.86 261.89" style="fill:#dbdbdb"></polygon><polygon points="111.42 277.85 136.02 277.61 160.62 277.47 209.83 277.35 259.05 277.46 283.66 277.6 308.27 277.85 283.67 278.09 259.07 278.23 209.86 278.35 160.65 278.23 136.03 278.09 111.42 277.85" style="fill:#dbdbdb"></polygon><polygon points="111.98 293.81 136.57 293.57 161.18 293.43 210.38 293.31 259.6 293.43 284.21 293.57 308.83 293.81 284.23 294.06 259.63 294.19 210.42 294.31 161.2 294.19 136.59 294.05 111.98 293.81" style="fill:#dbdbdb"></polygon><polygon points="112.53 309.77 137.13 309.53 161.73 309.39 210.94 309.27 260.16 309.39 284.77 309.53 309.39 309.77 284.79 310.02 260.19 310.16 210.98 310.27 161.76 310.15 137.15 310.01 112.53 309.77" style="fill:#dbdbdb"></polygon><polygon points="113.09 325.73 137.69 325.49 162.29 325.35 211.5 325.24 260.72 325.35 285.33 325.49 309.94 325.73 285.35 325.98 260.74 326.12 211.53 326.23 162.32 326.12 137.71 325.98 113.09 325.73" style="fill:#dbdbdb"></polygon><polygon points="113.65 341.7 138.25 341.45 162.85 341.31 212.06 341.2 261.27 341.31 285.89 341.45 310.5 341.7 285.9 341.94 261.3 342.08 212.09 342.2 162.88 342.08 138.26 341.94 113.65 341.7" style="fill:#dbdbdb"></polygon><polygon points="114.21 357.66 138.8 357.42 163.41 357.27 212.62 357.16 261.83 357.27 286.44 357.41 311.06 357.66 286.46 357.9 261.86 358.04 212.65 358.16 163.43 358.04 138.82 357.9 114.21 357.66" style="fill:#dbdbdb"></polygon><polygon points="114.76 373.62 139.36 373.38 163.96 373.24 213.17 373.12 262.39 373.24 287 373.38 311.62 373.62 287.02 373.87 262.42 374 213.21 374.12 163.99 374 139.38 373.86 114.76 373.62" style="fill:#dbdbdb"></polygon><polygon points="115.32 389.58 139.92 389.34 164.52 389.2 213.73 389.08 262.95 389.2 287.56 389.34 312.17 389.58 287.57 389.83 262.97 389.97 213.76 390.08 164.55 389.96 139.94 389.82 115.32 389.58" style="fill:#dbdbdb"></polygon><path d="M103.42,96.86a2.7,2.7,0,0,1-2.72,2.81,2.92,2.92,0,0,1-2.9-2.81,2.69,2.69,0,0,1,2.71-2.81A2.94,2.94,0,0,1,103.42,96.86Z" style="fill:#263238"></path><path d="M107.14,84.69c.57,4.78-1,9.69-5.1,12.38-1.77,1.21-3.62-1.75-1.84-2.89a9.2,9.2,0,0,0,3.69-7.81,15.88,15.88,0,0,0-.15-1.68,13.2,13.2,0,0,0-2.06-5.79,4.87,4.87,0,0,0-3.92-2.42,3.8,3.8,0,0,0-3.17,2.32,14.53,14.53,0,0,0-1.19,5.88H90a17.14,17.14,0,0,1,.8-5.85c1.07-3.1,3.25-5.65,6.78-5.79,3.19-.06,5.82,2.23,7.38,4.85A15.64,15.64,0,0,1,107.14,84.69Z" style="fill:#455a64"></path><path d="M122.2,96.86a2.69,2.69,0,0,1-2.71,2.81,2.92,2.92,0,0,1-2.9-2.81,2.69,2.69,0,0,1,2.71-2.81A2.92,2.92,0,0,1,122.2,96.86Z" style="fill:#263238"></path><path d="M125.92,84.69c.58,4.78-1,9.69-5.09,12.38-1.77,1.21-3.62-1.75-1.84-2.89a9.2,9.2,0,0,0,3.69-7.81,15.88,15.88,0,0,0-.15-1.68,13.2,13.2,0,0,0-2.06-5.79,4.87,4.87,0,0,0-3.92-2.42,3.8,3.8,0,0,0-3.17,2.32,14.53,14.53,0,0,0-1.19,5.88h-3.4a17.14,17.14,0,0,1,.8-5.85c1.07-3.1,3.25-5.65,6.78-5.79,3.19-.06,5.82,2.23,7.38,4.85A15.49,15.49,0,0,1,125.92,84.69Z" style="fill:#455a64"></path><path d="M141,96.86a2.69,2.69,0,0,1-2.71,2.81,2.94,2.94,0,0,1-2.91-2.81,2.7,2.7,0,0,1,2.72-2.81A2.92,2.92,0,0,1,141,96.86Z" style="fill:#263238"></path><path d="M144.71,84.69c.58,4.78-1,9.69-5.09,12.38-1.77,1.21-3.62-1.75-1.84-2.89a9.2,9.2,0,0,0,3.69-7.81,13.64,13.64,0,0,0-.16-1.68,13.06,13.06,0,0,0-2.05-5.79,4.87,4.87,0,0,0-3.92-2.42,3.8,3.8,0,0,0-3.17,2.32A14.35,14.35,0,0,0,131,84.68h-3.4a16.9,16.9,0,0,1,.8-5.85c1.07-3.1,3.25-5.65,6.78-5.79,3.19-.06,5.82,2.23,7.38,4.85A15.49,15.49,0,0,1,144.71,84.69Z" style="fill:#455a64"></path><path d="M159.78,96.86a2.69,2.69,0,0,1-2.71,2.81,2.94,2.94,0,0,1-2.91-2.81,2.7,2.7,0,0,1,2.71-2.81A2.93,2.93,0,0,1,159.78,96.86Z" style="fill:#263238"></path><path d="M163.5,84.69c.58,4.78-1,9.69-5.09,12.38-1.78,1.21-3.62-1.75-1.84-2.89a9.17,9.17,0,0,0,3.68-7.81,11.92,11.92,0,0,0-.15-1.68,13.19,13.19,0,0,0-2-5.79,4.87,4.87,0,0,0-3.92-2.42A3.83,3.83,0,0,0,151,78.8a14.27,14.27,0,0,0-1.18,5.88h-3.4a16.9,16.9,0,0,1,.8-5.85c1.06-3.1,3.25-5.65,6.78-5.79,3.19-.06,5.82,2.23,7.38,4.85A15.49,15.49,0,0,1,163.5,84.69Z" style="fill:#455a64"></path><path d="M178.57,96.86a2.7,2.7,0,0,1-2.71,2.81A2.94,2.94,0,0,1,173,96.86a2.7,2.7,0,0,1,2.71-2.81A2.93,2.93,0,0,1,178.57,96.86Z" style="fill:#263238"></path><path d="M182.29,84.69c.58,4.78-1,9.69-5.09,12.38-1.78,1.21-3.62-1.75-1.85-2.89A9.15,9.15,0,0,0,179,86.37a11.92,11.92,0,0,0-.15-1.68,13.08,13.08,0,0,0-2.06-5.79,4.86,4.86,0,0,0-3.91-2.42,3.82,3.82,0,0,0-3.18,2.32,14.27,14.27,0,0,0-1.18,5.88h-3.4a17.13,17.13,0,0,1,.79-5.85c1.07-3.1,3.26-5.65,6.78-5.79,3.2-.06,5.83,2.23,7.38,4.85A15.64,15.64,0,0,1,182.29,84.69Z" style="fill:#455a64"></path><path d="M197.36,96.86a2.7,2.7,0,0,1-2.71,2.81,2.93,2.93,0,0,1-2.91-2.81,2.7,2.7,0,0,1,2.71-2.81A2.94,2.94,0,0,1,197.36,96.86Z" style="fill:#263238"></path><path d="M201.08,84.69c.58,4.78-1,9.69-5.09,12.38-1.78,1.21-3.63-1.75-1.85-2.89a9.15,9.15,0,0,0,3.69-7.81,15.88,15.88,0,0,0-.15-1.68,13.08,13.08,0,0,0-2.06-5.79,4.87,4.87,0,0,0-3.92-2.42,3.82,3.82,0,0,0-3.17,2.32,14.27,14.27,0,0,0-1.18,5.88H184a17.13,17.13,0,0,1,.79-5.85c1.07-3.1,3.25-5.65,6.78-5.79,3.19-.06,5.82,2.23,7.38,4.85A15.64,15.64,0,0,1,201.08,84.69Z" style="fill:#455a64"></path><path d="M216.15,96.86a2.7,2.7,0,0,1-2.71,2.81,2.93,2.93,0,0,1-2.91-2.81,2.69,2.69,0,0,1,2.71-2.81A2.94,2.94,0,0,1,216.15,96.86Z" style="fill:#263238"></path><path d="M219.87,84.69c.58,4.78-1,9.69-5.09,12.38-1.78,1.21-3.63-1.75-1.85-2.89a9.15,9.15,0,0,0,3.69-7.81,15.88,15.88,0,0,0-.15-1.68,13.08,13.08,0,0,0-2.06-5.79,4.87,4.87,0,0,0-3.92-2.42,3.8,3.8,0,0,0-3.17,2.32,14.53,14.53,0,0,0-1.19,5.88h-3.39a17.13,17.13,0,0,1,.79-5.85c1.07-3.1,3.25-5.65,6.78-5.79,3.19-.06,5.82,2.23,7.38,4.85A15.64,15.64,0,0,1,219.87,84.69Z" style="fill:#455a64"></path><path d="M234.94,96.86a2.7,2.7,0,0,1-2.72,2.81,2.92,2.92,0,0,1-2.9-2.81A2.69,2.69,0,0,1,232,94.05,2.94,2.94,0,0,1,234.94,96.86Z" style="fill:#263238"></path><path d="M238.66,84.69c.57,4.78-1,9.69-5.1,12.38-1.77,1.21-3.62-1.75-1.84-2.89a9.2,9.2,0,0,0,3.69-7.81,15.88,15.88,0,0,0-.15-1.68,13.2,13.2,0,0,0-2.06-5.79,4.87,4.87,0,0,0-3.92-2.42,3.8,3.8,0,0,0-3.17,2.32,14.53,14.53,0,0,0-1.19,5.88h-3.4a17.14,17.14,0,0,1,.8-5.85c1.07-3.1,3.25-5.65,6.78-5.79,3.19-.06,5.82,2.23,7.38,4.85A15.64,15.64,0,0,1,238.66,84.69Z" style="fill:#455a64"></path><path d="M253.72,96.86A2.69,2.69,0,0,1,251,99.67a2.92,2.92,0,0,1-2.9-2.81,2.69,2.69,0,0,1,2.71-2.81A2.92,2.92,0,0,1,253.72,96.86Z" style="fill:#263238"></path><path d="M257.44,84.69c.58,4.78-1,9.69-5.09,12.38-1.77,1.21-3.62-1.75-1.84-2.89a9.2,9.2,0,0,0,3.69-7.81,15.88,15.88,0,0,0-.15-1.68A13.2,13.2,0,0,0,252,78.9a4.87,4.87,0,0,0-3.92-2.42,3.8,3.8,0,0,0-3.17,2.32,14.53,14.53,0,0,0-1.19,5.88h-3.4a17.14,17.14,0,0,1,.8-5.85c1.07-3.1,3.25-5.65,6.78-5.79,3.19-.06,5.82,2.23,7.38,4.85A15.49,15.49,0,0,1,257.44,84.69Z" style="fill:#455a64"></path><path d="M272.51,96.86a2.69,2.69,0,0,1-2.71,2.81,2.94,2.94,0,0,1-2.91-2.81,2.7,2.7,0,0,1,2.72-2.81A2.92,2.92,0,0,1,272.51,96.86Z" style="fill:#263238"></path><path d="M276.23,84.69c.58,4.78-1,9.69-5.09,12.38-1.77,1.21-3.62-1.75-1.84-2.89A9.2,9.2,0,0,0,273,86.37a13.64,13.64,0,0,0-.16-1.68,13.06,13.06,0,0,0-2.05-5.79,4.87,4.87,0,0,0-3.92-2.42,3.8,3.8,0,0,0-3.17,2.32,14.35,14.35,0,0,0-1.19,5.88h-3.4a16.9,16.9,0,0,1,.8-5.85c1.07-3.1,3.25-5.65,6.78-5.79,3.19-.06,5.82,2.23,7.38,4.85A15.49,15.49,0,0,1,276.23,84.69Z" style="fill:#455a64"></path><path d="M291.3,96.86a2.69,2.69,0,0,1-2.71,2.81,2.94,2.94,0,0,1-2.91-2.81,2.7,2.7,0,0,1,2.71-2.81A2.93,2.93,0,0,1,291.3,96.86Z" style="fill:#263238"></path><path d="M295,84.69c.58,4.78-1,9.69-5.09,12.38-1.78,1.21-3.62-1.75-1.84-2.89a9.17,9.17,0,0,0,3.68-7.81,11.92,11.92,0,0,0-.15-1.68,13.19,13.19,0,0,0-2.05-5.79,4.87,4.87,0,0,0-3.92-2.42,3.83,3.83,0,0,0-3.18,2.32,14.27,14.27,0,0,0-1.18,5.88h-3.4a16.9,16.9,0,0,1,.8-5.85c1.06-3.1,3.25-5.65,6.78-5.79,3.19-.06,5.82,2.23,7.38,4.85A15.49,15.49,0,0,1,295,84.69Z" style="fill:#455a64"></path><path d="M310.09,96.86a2.7,2.7,0,0,1-2.71,2.81,2.94,2.94,0,0,1-2.91-2.81,2.7,2.7,0,0,1,2.71-2.81A2.93,2.93,0,0,1,310.09,96.86Z" style="fill:#263238"></path><path d="M313.81,84.69c.58,4.78-1,9.69-5.09,12.38-1.78,1.21-3.62-1.75-1.85-2.89a9.15,9.15,0,0,0,3.69-7.81,11.92,11.92,0,0,0-.15-1.68,13.08,13.08,0,0,0-2.06-5.79,4.86,4.86,0,0,0-3.91-2.42,3.82,3.82,0,0,0-3.18,2.32,14.27,14.27,0,0,0-1.18,5.88h-3.4a17.13,17.13,0,0,1,.79-5.85c1.07-3.1,3.26-5.65,6.78-5.79,3.2-.06,5.83,2.23,7.38,4.85A15.64,15.64,0,0,1,313.81,84.69Z" style="fill:#455a64"></path><path d="M153.73,124.77h-2.54l.3,8.54a.84.84,0,0,1-.85.88.91.91,0,0,1-.91-.88l-.3-8.54H146.9a.92.92,0,0,1-.91-.9.83.83,0,0,1,.85-.88h6.83a.92.92,0,0,1,.91.88A.87.87,0,0,1,153.73,124.77Z" style="fill:#263238"></path><path d="M157.55,133.31l-.33-9.44a.83.83,0,0,1,.85-.88.93.93,0,0,1,.93.88l.13,3.84h4.15l-.14-3.84A.84.84,0,0,1,164,123a.93.93,0,0,1,.93.88l.33,9.44a.84.84,0,0,1-.87.88.91.91,0,0,1-.91-.88l-.13-3.84h-4.15l.14,3.84a.85.85,0,0,1-.87.88A.9.9,0,0,1,157.55,133.31Z" style="fill:#263238"></path><path d="M167.88,123.87a.83.83,0,0,1,.85-.88.93.93,0,0,1,.92.88l.33,9.44a.85.85,0,0,1-.86.88.91.91,0,0,1-.92-.88Z" style="fill:#263238"></path><path d="M174.73,133.31a.85.85,0,0,1-.83.88.91.91,0,0,1-.91-.88l-.33-9.29v0a.88.88,0,0,1,.33-.74.89.89,0,0,1,1.22.2l5.42,7.15L179.4,124a.85.85,0,0,1,.84-.87.93.93,0,0,1,.91.87l.32,9.29a.85.85,0,0,1-.85.88.89.89,0,0,1-.66-.32.28.28,0,0,1-.09-.1l-5.37-7.1Z" style="fill:#263238"></path><path d="M183.84,128.45a5.6,5.6,0,0,1,5.71-5.78,6.13,6.13,0,0,1,3.69,1.25.93.93,0,0,1,.22,1.3.92.92,0,0,1-1.29.14,4.28,4.28,0,0,0-2.56-.86,3.86,3.86,0,0,0-2.84,1.16,3.68,3.68,0,0,0-1.1,2.79A4,4,0,0,0,187,131.2a4.11,4.11,0,0,0,2.93,1.17,4.28,4.28,0,0,0,2.17-.61l-.08-2.19h-2.29a1,1,0,0,1-.94-.91.86.86,0,0,1,.88-.9h3.18a.93.93,0,0,1,1,.9l.13,3.53a1.93,1.93,0,0,1,0,.27.41.41,0,0,0,0,.08v0a.69.69,0,0,1-.29.38,5.69,5.69,0,0,1-3.59,1.25A6.07,6.07,0,0,1,183.84,128.45Z" style="fill:#263238"></path><path d="M197.11,131.41a.83.83,0,0,1,1.17-.11,5.46,5.46,0,0,0,3.1,1.23,3.37,3.37,0,0,0,2-.59,1.41,1.41,0,0,0,.65-1.16,1,1,0,0,0-.16-.51,1.78,1.78,0,0,0-.5-.48,6.86,6.86,0,0,0-2.22-.75h0a9.13,9.13,0,0,1-2.09-.62,3.61,3.61,0,0,1-1.53-1.25,2.51,2.51,0,0,1-.42-1.31,2.87,2.87,0,0,1,1.2-2.34,4.65,4.65,0,0,1,2.74-.85,6.5,6.5,0,0,1,3.54,1.28.85.85,0,0,1,.26,1.14.8.8,0,0,1-1.13.24,4.74,4.74,0,0,0-2.61-1,3,3,0,0,0-1.77.55,1.21,1.21,0,0,0-.58,1,.82.82,0,0,0,.13.44,1.42,1.42,0,0,0,.45.42,5.59,5.59,0,0,0,2,.7h0a9.35,9.35,0,0,1,2.24.68,3.9,3.9,0,0,1,1.64,1.32,2.68,2.68,0,0,1,.44,1.36,3,3,0,0,1-1.29,2.48,4.87,4.87,0,0,1-2.93.91,7.19,7.19,0,0,1-4.16-1.59A.87.87,0,0,1,197.11,131.41Z" style="fill:#263238"></path><path d="M219.56,124.77H217l.3,8.54a.83.83,0,0,1-.85.88.91.91,0,0,1-.91-.88l-.3-8.54h-2.53a.94.94,0,0,1-.91-.9.83.83,0,0,1,.85-.88h6.84a.92.92,0,0,1,.91.88A.87.87,0,0,1,219.56,124.77Z" style="fill:#263238"></path><path d="M231,124.38a6.07,6.07,0,0,1,1.75,4.05,5.65,5.65,0,0,1-1.47,4,5.05,5.05,0,0,1-3.77,1.71,5.61,5.61,0,0,1-4-1.71,6,6,0,0,1-1.72-4,5.63,5.63,0,0,1,1.44-4.05,5.16,5.16,0,0,1,3.86-1.71A5.43,5.43,0,0,1,231,124.38Zm-.07,4.05a4.32,4.32,0,0,0-1.19-2.8,3.57,3.57,0,0,0-2.57-1.13,3.36,3.36,0,0,0-2.55,1.13,3.92,3.92,0,0,0-1,2.8,4.15,4.15,0,0,0,1.19,2.79,3.6,3.6,0,0,0,2.63,1.15,3.35,3.35,0,0,0,2.49-1.15A4,4,0,0,0,231,128.43Z" style="fill:#263238"></path><path d="M240.89,133.31l-.33-9.44a.84.84,0,0,1,.85-.88h1.89a5.83,5.83,0,0,1,5.78,5.59,5.36,5.36,0,0,1-5.39,5.61H241.8A.92.92,0,0,1,240.89,133.31Zm1.75-.9h1a3.67,3.67,0,0,0,3.68-3.83,4,4,0,0,0-3.95-3.81h-1Z" style="fill:#263238"></path><path d="M260.68,124.38a6.13,6.13,0,0,1,1.76,4.05,5.66,5.66,0,0,1-1.48,4,5,5,0,0,1-3.76,1.71,5.59,5.59,0,0,1-4-1.71,6,6,0,0,1-1.73-4,5.68,5.68,0,0,1,1.44-4.05,5.18,5.18,0,0,1,3.86-1.71A5.4,5.4,0,0,1,260.68,124.38Zm-.07,4.05a4.26,4.26,0,0,0-1.18-2.8,3.58,3.58,0,0,0-2.57-1.13,3.37,3.37,0,0,0-2.56,1.13,4,4,0,0,0-1,2.8,4.15,4.15,0,0,0,1.19,2.79,3.63,3.63,0,0,0,2.63,1.15,3.35,3.35,0,0,0,2.49-1.15A4,4,0,0,0,260.61,128.43Z" style="fill:#263238"></path><path d="M140.42,163.82H128.61L128.19,152H140Zm-10.85-1h9.81L139,153h-9.81Z" style="fill:#263238"></path><path d="M153.35,163.32h0a.2.2,0,0,1-.2-.2L152.76,153a.19.19,0,1,1,.38,0l.34,9.93h5.42a.19.19,0,1,1,0,.38Z" style="fill:#263238"></path><path d="M167.29,156.16l.24,7a.18.18,0,0,1-.17.2.19.19,0,0,1-.2-.2l-.07-1.83a3.31,3.31,0,0,1-3,2,3.74,3.74,0,0,1-3.59-3.68,3.44,3.44,0,0,1,3.34-3.68,3.63,3.63,0,0,1,3.16,2l-.07-1.83a.2.2,0,0,1,.19-.2A.21.21,0,0,1,167.29,156.16Zm-.26,3.48a3.34,3.34,0,0,0-3.2-3.29,3.07,3.07,0,0,0-3,3.29,3.35,3.35,0,0,0,3.21,3.3A3.07,3.07,0,0,0,167,159.64Z" style="fill:#263238"></path><path d="M170.29,156.16a.18.18,0,0,1,.19-.2.2.2,0,0,1,.18.2l.15,4.19a2.68,2.68,0,0,0,2.65,2.59,2.47,2.47,0,0,0,2.49-2.59l-.14-4.19a.2.2,0,0,1,.19-.2.21.21,0,0,1,.2.2l.14,4.19a2.84,2.84,0,0,1-2.86,3,3.09,3.09,0,0,1-3-3Z" style="fill:#263238"></path><path d="M184.92,158.93a2.69,2.69,0,0,0-2.67-2.59,2.49,2.49,0,0,0-2.51,2.59l.15,4.19a.16.16,0,0,1,0,.12.14.14,0,0,1-.13.08h-.06l0,0,0,0s0,0,0,0a.11.11,0,0,1,0-.08v0l-.15-4.19v-.12l-.1-2.67a.19.19,0,0,1,.38,0l0,1.35a2.88,2.88,0,0,1,2.55-1.53,3.08,3.08,0,0,1,3,3l.15,4.19a.19.19,0,0,1-.19.2.18.18,0,0,1-.18-.2Z" style="fill:#263238"></path><path d="M194.84,163.32a.21.21,0,0,1-.19-.2l-.06-1.81a3.43,3.43,0,0,1-3.1,2,3.8,3.8,0,0,1-3.7-3.69,3.48,3.48,0,0,1,3.45-3.67,3.69,3.69,0,0,1,3.23,2l-.17-5a.21.21,0,0,1,.17-.23.22.22,0,0,1,.2.23l.23,6.43v.33l.12,3.32A.19.19,0,0,1,194.84,163.32Zm-.32-3.83a3.36,3.36,0,0,0-3.27-3.15,3.11,3.11,0,0,0-3.08,3.29,3.39,3.39,0,0,0,3.31,3.31,3.13,3.13,0,0,0,3.05-3.31Z" style="fill:#263238"></path><path d="M198.21,159.68s0,0,0-.09l-.12-3.43a.19.19,0,0,1,.17-.2.18.18,0,0,1,.19.2l.09,2.49a6.34,6.34,0,0,1,.43-.87,3.43,3.43,0,0,1,2.87-1.82.2.2,0,0,1,.2.2.18.18,0,0,1-.19.19,2.71,2.71,0,0,0-2.1,1,6.75,6.75,0,0,0-1,1.81c-.11.33-.16.51-.16.51l.12,3.44c0,.12-.06.2-.18.2a.19.19,0,0,1-.18-.2Z" style="fill:#263238"></path><path d="M204,156.16a.18.18,0,0,1,.19-.2.2.2,0,0,1,.18.2l.15,4.19a2.68,2.68,0,0,0,2.67,2.56,2.46,2.46,0,0,0,2.45-2.46l-.15-4.29v0s0,0,0-.08,0,0,0,0l0,0a.29.29,0,0,1,.1,0h0l0,0,.05,0s0,0,0,0a.17.17,0,0,1,.05.12l.24,6.74a3.31,3.31,0,0,1-3.33,3.45,3.54,3.54,0,0,1-1.52-.36.18.18,0,0,1-.08-.26.17.17,0,0,1,.22-.09,3,3,0,0,0,1.36.33,2.94,2.94,0,0,0,3-3.07l0-1.11a2.74,2.74,0,0,1-2.48,1.5,3.08,3.08,0,0,1-3.06-2.94Z" style="fill:#263238"></path><path d="M141.54,195.91H129.73l-.42-11.82h11.82Zm-10.85-1h9.82l-.35-9.82h-9.81Z" style="fill:#263238"></path><path d="M153.66,193.62a.18.18,0,0,1,.24,0,6.39,6.39,0,0,0,3.69,1.44,4.08,4.08,0,0,0,2.45-.75,2.12,2.12,0,0,0,.94-1.76,1.94,1.94,0,0,0-1-1.6,6.67,6.67,0,0,0-2.58-.89l0,0a6.91,6.91,0,0,1-2.52-.88,2.16,2.16,0,0,1-1.1-1.76c0-1.5,1.54-2.64,3.46-2.64a6,6,0,0,1,3.28,1.23.18.18,0,0,1,.06.24.17.17,0,0,1-.23.05,5.65,5.65,0,0,0-3.1-1.17,3.85,3.85,0,0,0-2.27.69,2,2,0,0,0-.86,1.6,1.81,1.81,0,0,0,.94,1.47,6.56,6.56,0,0,0,2.38.84h0a7.81,7.81,0,0,1,2.72,1,2.35,2.35,0,0,1,1.18,1.89c0,1.62-1.66,2.85-3.73,2.85a6.7,6.7,0,0,1-3.91-1.51A.2.2,0,0,1,153.66,193.62Z" style="fill:#263238"></path><path d="M169.51,191a2.71,2.71,0,0,0-2.69-2.6,2.5,2.5,0,0,0-2.52,2.5l.15,4.27a.18.18,0,0,1-.07.17l-.07,0h0a.27.27,0,0,1-.14,0,.17.17,0,0,1-.06-.12v0l-.15-4.17v-.12l-.21-5.82a.19.19,0,1,1,.38,0l.16,4.5a2.85,2.85,0,0,1,2.55-1.55,3.11,3.11,0,0,1,3.08,3l.14,4.17a.19.19,0,0,1-.17.2.19.19,0,0,1-.2-.2Z" style="fill:#263238"></path><path d="M176.14,188.05a3.74,3.74,0,0,1,3.61,3.68,3.45,3.45,0,0,1-3.35,3.68,3.75,3.75,0,0,1-3.6-3.68A3.43,3.43,0,0,1,176.14,188.05Zm.24,7a3.08,3.08,0,0,0,3-3.3,3.35,3.35,0,0,0-3.22-3.3,3.07,3.07,0,0,0-3,3.3A3.35,3.35,0,0,0,176.38,195Z" style="fill:#263238"></path><path d="M182.53,191.84v-.3l-.12-3.29a.18.18,0,0,1,.19-.2.19.19,0,0,1,.19.2l.06,1.81a3.34,3.34,0,0,1,3.07-2,3.72,3.72,0,0,1,3.66,3.64,3.43,3.43,0,0,1-3.41,3.64,3.67,3.67,0,0,1-3.2-2l.17,5.08a.17.17,0,0,1-.17.2.19.19,0,0,1-.2-.2Zm.37-.15a3.34,3.34,0,0,0,3.25,3.25,3.07,3.07,0,0,0,3-3.25,3.36,3.36,0,0,0-3.26-3.26,3.07,3.07,0,0,0-3,3.12Z" style="fill:#263238"></path><path d="M199.69,185.07a.18.18,0,0,1-.19.19,1.32,1.32,0,0,0-1.08.36,2,2,0,0,0-.3,1.38l0,1h1.26a.21.21,0,0,1,.19.2.18.18,0,0,1-.18.19h-1.26l.24,6.82a.19.19,0,0,1-.19.19.21.21,0,0,1-.2-.19l-.24-6.82h-1.2a.21.21,0,0,1-.2-.19.19.19,0,0,1,.19-.2h1.2l0-1a2.31,2.31,0,0,1,.4-1.63,1.69,1.69,0,0,1,1.36-.48A.18.18,0,0,1,199.69,185.07Z" style="fill:#263238"></path><path d="M205.17,188.05a3.73,3.73,0,0,1,3.6,3.68,3.45,3.45,0,0,1-3.35,3.68,3.74,3.74,0,0,1-3.59-3.68A3.43,3.43,0,0,1,205.17,188.05Zm.24,7a3.09,3.09,0,0,0,3-3.3,3.36,3.36,0,0,0-3.22-3.3,3.08,3.08,0,0,0-3,3.3A3.35,3.35,0,0,0,205.41,195Z" style="fill:#263238"></path><path d="M211.27,191.78a.09.09,0,0,1,0-.09l-.12-3.44a.2.2,0,0,1,.18-.2.18.18,0,0,1,.18.2l.09,2.49a6.34,6.34,0,0,1,.43-.87,3.44,3.44,0,0,1,2.87-1.82.2.2,0,0,1,.2.2.18.18,0,0,1-.19.19,2.71,2.71,0,0,0-2.1,1,6.75,6.75,0,0,0-1,1.81c-.11.33-.16.52-.16.52l.12,3.43c0,.12-.06.2-.18.2a.19.19,0,0,1-.18-.2Z" style="fill:#263238"></path><path d="M228.65,188.25l.23,6.74a3.32,3.32,0,0,1-3.34,3.48,3.63,3.63,0,0,1-1.54-.36.2.2,0,0,1-.09-.26.2.2,0,0,1,.25-.09,3,3,0,0,0,1.37.33,3,3,0,0,0,3-3.1l-.06-1.61a3.3,3.3,0,0,1-3,2,3.74,3.74,0,0,1-3.59-3.68,3.43,3.43,0,0,1,3.34-3.68,3.62,3.62,0,0,1,3.16,2l-.07-1.81a.2.2,0,0,1,.18-.2A.2.2,0,0,1,228.65,188.25Zm-3.46.18a3.08,3.08,0,0,0-3,3.3,3.34,3.34,0,0,0,3.21,3.29,3.06,3.06,0,0,0,3-3.29A3.34,3.34,0,0,0,225.19,188.43Z" style="fill:#263238"></path><path d="M232.25,191.78a.07.07,0,0,1,0-.09l-.12-3.44a.18.18,0,0,1,.17-.2.19.19,0,0,1,.19.2l.08,2.49a6.47,6.47,0,0,1,.44-.87,3.43,3.43,0,0,1,2.86-1.82.19.19,0,0,1,.2.2.18.18,0,0,1-.19.19,2.69,2.69,0,0,0-2.09,1,6.82,6.82,0,0,0-1,1.81c-.11.33-.16.52-.16.52l.12,3.43c0,.12,0,.2-.17.2a.21.21,0,0,1-.19-.2Z" style="fill:#263238"></path><path d="M241.44,188.05a3.73,3.73,0,0,1,3.6,3.68,3.45,3.45,0,0,1-3.35,3.68,3.74,3.74,0,0,1-3.59-3.68A3.43,3.43,0,0,1,241.44,188.05Zm.24,7a3.09,3.09,0,0,0,3-3.3,3.36,3.36,0,0,0-3.22-3.3,3.08,3.08,0,0,0-3,3.3A3.35,3.35,0,0,0,241.68,195Z" style="fill:#263238"></path><path d="M251,188.05a3.86,3.86,0,0,1,2.36.8.21.21,0,0,1,0,.28.18.18,0,0,1-.26,0,3.54,3.54,0,0,0-2.12-.72,3.2,3.2,0,0,0-3.29,3.3,3.48,3.48,0,0,0,3.52,3.3,3.34,3.34,0,0,0,2.07-.73.21.21,0,0,1,.26,0,.2.2,0,0,1,0,.27,3.7,3.7,0,0,1-2.31.8,3.93,3.93,0,0,1-3.91-3.68A3.59,3.59,0,0,1,251,188.05Z" style="fill:#263238"></path><path d="M255.63,191.73a3.5,3.5,0,0,1,3.45-3.68,3.74,3.74,0,0,1,3.64,3.39v.05h0c0,.09-.08.19-.17.19H256v0a3.41,3.41,0,0,0,3.31,3.3,3,3,0,0,0,2.59-1.5c0-.09.16-.09.27,0a.18.18,0,0,1,.05.25,3.43,3.43,0,0,1-2.9,1.67A3.85,3.85,0,0,1,255.63,191.73Zm.38-.41h6.33a3.37,3.37,0,0,0-3.25-2.88A3.09,3.09,0,0,0,256,191.32Z" style="fill:#263238"></path><path d="M265,191.78a.09.09,0,0,1,0-.09l-.12-3.44a.2.2,0,0,1,.18-.2.18.18,0,0,1,.18.2l.09,2.49a6.34,6.34,0,0,1,.43-.87,3.44,3.44,0,0,1,2.87-1.82.2.2,0,0,1,.2.2.18.18,0,0,1-.19.19,2.71,2.71,0,0,0-2.1,1,6.75,6.75,0,0,0-1,1.81c-.11.33-.16.52-.16.52l.12,3.43c0,.12-.06.2-.18.2a.19.19,0,0,1-.18-.2Z" style="fill:#263238"></path><path d="M271.38,185.88a.17.17,0,0,1,.18-.2.2.2,0,0,1,.19.2v.36a.18.18,0,0,1-.17.18.19.19,0,0,1-.2-.18Zm.08,2.35c0-.12.07-.18.19-.18a.17.17,0,0,1,.18.18l.25,7a.2.2,0,0,1-.18.2.19.19,0,0,1-.2-.2Z" style="fill:#263238"></path><path d="M275.25,191.73a3.5,3.5,0,0,1,3.45-3.68,3.74,3.74,0,0,1,3.64,3.39v.05h0c0,.09-.08.19-.17.19h-6.54v0a3.41,3.41,0,0,0,3.31,3.3,3,3,0,0,0,2.59-1.5c.05-.09.16-.09.26,0a.18.18,0,0,1,.06.25,3.43,3.43,0,0,1-2.9,1.67A3.85,3.85,0,0,1,275.25,191.73Zm.38-.41H282a3.37,3.37,0,0,0-3.25-2.88A3.09,3.09,0,0,0,275.63,191.32Z" style="fill:#263238"></path><path d="M284.43,194.12c.05-.11.17-.12.27,0a4.25,4.25,0,0,0,2.46.94,2.69,2.69,0,0,0,1.6-.49,1.36,1.36,0,0,0,.62-1.14,1.33,1.33,0,0,0-.65-1,5.14,5.14,0,0,0-1.72-.6h0a4.07,4.07,0,0,1-1.73-.6,1.56,1.56,0,0,1-.78-1.25c0-1.06,1.09-1.86,2.44-1.86a4,4,0,0,1,2.25.86.2.2,0,0,1,.07.25.2.2,0,0,1-.27.06,3.8,3.8,0,0,0-2-.79,2.49,2.49,0,0,0-1.51.46,1.27,1.27,0,0,0-.55,1,1.09,1.09,0,0,0,.59.93,4.43,4.43,0,0,0,1.61.57h0a5.62,5.62,0,0,1,1.87.63,1.72,1.72,0,0,1,.83,1.36c0,1.15-1.16,2-2.59,2a4.52,4.52,0,0,1-2.7-1A.15.15,0,0,1,284.43,194.12Z" style="fill:#263238"></path><path d="M142.66,228H130.85l-.42-11.82h11.82Zm-10.85-1h9.82l-.35-9.82h-9.81Z" style="fill:#263238"></path><path d="M165.37,227.48c-.06,0-.09-.06-.11-.12l-3.19-7-2.72,7.06a.17.17,0,0,1-.1.1h0a0,0,0,0,1,0,0h0s0,0-.06,0h0s0,0,0,0h0a.14.14,0,0,1,0-.09l-4.58-10.07a.16.16,0,0,1,.08-.24.2.2,0,0,1,.26.09l4.4,9.69,2.7-7a.18.18,0,0,1,.19-.13c.07,0,.16,0,.21.13l3.17,7,3.74-9.69a.19.19,0,0,1,.25-.09.18.18,0,0,1,.12.24l-3.9,10.1s0,0,0,.07a0,0,0,0,0,0,0l-.09,0h0a.06.06,0,0,1-.05,0Z" style="fill:#263238"></path><path d="M176.56,220.34l.25,7a.18.18,0,0,1-.18.2.19.19,0,0,1-.2-.2l-.06-1.83a3.31,3.31,0,0,1-3,2,3.74,3.74,0,0,1-3.59-3.68,3.44,3.44,0,0,1,3.33-3.68,3.62,3.62,0,0,1,3.16,2l-.06-1.83a.2.2,0,0,1,.19-.2A.2.2,0,0,1,176.56,220.34Zm-.25,3.48a3.34,3.34,0,0,0-3.2-3.29,3.07,3.07,0,0,0-3,3.29,3.34,3.34,0,0,0,3.21,3.3A3.07,3.07,0,0,0,176.31,223.82Z" style="fill:#263238"></path><path d="M179.35,226.21c.05-.11.17-.12.27,0a4.28,4.28,0,0,0,2.46.94,2.67,2.67,0,0,0,1.6-.49,1.36,1.36,0,0,0,.62-1.14,1.33,1.33,0,0,0-.65-1,4.87,4.87,0,0,0-1.71-.6h-.05a4,4,0,0,1-1.73-.6,1.57,1.57,0,0,1-.78-1.25c0-1.06,1.09-1.86,2.44-1.86a4,4,0,0,1,2.25.86.2.2,0,0,1,.07.25.2.2,0,0,1-.27.06,3.8,3.8,0,0,0-2-.79,2.51,2.51,0,0,0-1.51.46,1.27,1.27,0,0,0-.55,1,1.16,1.16,0,0,0,.59.94,4.63,4.63,0,0,0,1.61.56h0a5.62,5.62,0,0,1,1.87.64,1.68,1.68,0,0,1,.83,1.35c0,1.15-1.16,2-2.59,2a4.52,4.52,0,0,1-2.7-1.05A.15.15,0,0,1,179.35,226.21Z" style="fill:#263238"></path><path d="M192.77,223.13a2.7,2.7,0,0,0-2.68-2.6,2.5,2.5,0,0,0-2.53,2.49l.15,4.28a.18.18,0,0,1-.07.17l-.07,0h0a.27.27,0,0,1-.14-.05.17.17,0,0,1-.06-.12v0l-.15-4.17V223l-.21-5.82a.19.19,0,1,1,.38,0l.16,4.5a2.85,2.85,0,0,1,2.55-1.55,3.11,3.11,0,0,1,3.08,3l.14,4.17a.19.19,0,0,1-.17.2.19.19,0,0,1-.2-.2Z" style="fill:#263238"></path><path d="M203.25,220.34a.19.19,0,0,1-.19.18h-1.2l.2,5.85a.82.82,0,0,0,.8.77.19.19,0,1,1,0,.37,1.19,1.19,0,0,1-1.18-1.14l-.21-5.85h-1.26a.2.2,0,0,1-.2-.18.2.2,0,0,1,.19-.2h1.26l-.1-2.94a.18.18,0,0,1,.17-.19.2.2,0,0,1,.2.19l.11,2.94h1.2A.21.21,0,0,1,203.25,220.34Z" style="fill:#263238"></path><path d="M212.17,223.13a2.71,2.71,0,0,0-2.69-2.6A2.5,2.5,0,0,0,207,223l.15,4.28a.21.21,0,0,1-.07.17l-.08,0h0a.24.24,0,0,1-.13-.05.19.19,0,0,1-.07-.12v0l-.14-4.17V223l-.2-5.82a.19.19,0,1,1,.37,0l.16,4.5a2.87,2.87,0,0,1,2.56-1.55,3.1,3.1,0,0,1,3.07,3l.15,4.17a.2.2,0,0,1-.18.2.19.19,0,0,1-.2-.2Z" style="fill:#263238"></path><path d="M215.28,223.82a3.5,3.5,0,0,1,3.44-3.68,3.73,3.73,0,0,1,3.64,3.4h0v0c0,.09-.09.18-.18.18h-6.54v0a3.4,3.4,0,0,0,3.31,3.3,3,3,0,0,0,2.58-1.5c.06-.09.16-.09.27,0a.17.17,0,0,1,.05.25A3.4,3.4,0,0,1,219,227.5,3.84,3.84,0,0,1,215.28,223.82Zm.38-.41H222a3.38,3.38,0,0,0-3.25-2.88A3.08,3.08,0,0,0,215.66,223.41Z" style="fill:#263238"></path><path d="M236,227.5a.21.21,0,0,1-.19-.2l-.06-1.81a3.43,3.43,0,0,1-3.1,2,3.8,3.8,0,0,1-3.7-3.69,3.48,3.48,0,0,1,3.45-3.67,3.68,3.68,0,0,1,3.23,2l-.17-4.95c0-.11.08-.23.17-.23a.22.22,0,0,1,.2.23l.23,6.44V224l.12,3.32A.19.19,0,0,1,236,227.5Zm-.32-3.83a3.36,3.36,0,0,0-3.27-3.15,3.11,3.11,0,0,0-3.08,3.29,3.4,3.4,0,0,0,3.31,3.31,3.13,3.13,0,0,0,3.05-3.31Z" style="fill:#263238"></path><path d="M239.15,218a.18.18,0,0,1,.19-.2.19.19,0,0,1,.18.2l0,.36a.19.19,0,0,1-.18.18.2.2,0,0,1-.2-.18Zm.08,2.35a.17.17,0,0,1,.19-.18.19.19,0,0,1,.19.18l.24,7a.19.19,0,0,1-.17.2.19.19,0,0,1-.2-.2Z" style="fill:#263238"></path><path d="M243.07,226.21c.05-.11.17-.12.27,0a4.25,4.25,0,0,0,2.46.94,2.69,2.69,0,0,0,1.6-.49,1.36,1.36,0,0,0,.62-1.14,1.33,1.33,0,0,0-.65-1,5,5,0,0,0-1.71-.6h0a4,4,0,0,1-1.73-.6,1.55,1.55,0,0,1-.78-1.25c0-1.06,1.09-1.86,2.44-1.86a4,4,0,0,1,2.25.86.2.2,0,0,1,.07.25.2.2,0,0,1-.27.06,3.8,3.8,0,0,0-2-.79A2.51,2.51,0,0,0,244,221a1.27,1.27,0,0,0-.55,1,1.12,1.12,0,0,0,.59.94,4.63,4.63,0,0,0,1.61.56h0a5.62,5.62,0,0,1,1.87.64,1.68,1.68,0,0,1,.83,1.35c0,1.15-1.16,2-2.59,2a4.52,4.52,0,0,1-2.7-1.05A.15.15,0,0,1,243.07,226.21Z" style="fill:#263238"></path><path d="M256.49,223.13a2.71,2.71,0,0,0-2.69-2.6,2.5,2.5,0,0,0-2.52,2.49l.15,4.28a.21.21,0,0,1-.07.17l-.07,0h0a.27.27,0,0,1-.14-.05.17.17,0,0,1-.06-.12v0l-.15-4.17V223l-.21-5.82a.19.19,0,1,1,.38,0l.15,4.5a2.88,2.88,0,0,1,2.56-1.55,3.09,3.09,0,0,1,3.07,3l.15,4.17a.19.19,0,0,1-.17.2.21.21,0,0,1-.21-.2Z" style="fill:#263238"></path><path d="M259.6,223.82a3.5,3.5,0,0,1,3.45-3.68,3.74,3.74,0,0,1,3.64,3.4h0v0a.19.19,0,0,1-.17.18H260v0a3.41,3.41,0,0,0,3.31,3.3,3,3,0,0,0,2.59-1.5c.05-.09.16-.09.27,0a.18.18,0,0,1,.05.25,3.43,3.43,0,0,1-2.9,1.67A3.85,3.85,0,0,1,259.6,223.82Zm.38-.41h6.33a3.37,3.37,0,0,0-3.25-2.88A3.09,3.09,0,0,0,260,223.41Z" style="fill:#263238"></path><path d="M268.78,226.21c.05-.11.17-.12.27,0a4.25,4.25,0,0,0,2.46.94,2.69,2.69,0,0,0,1.6-.49,1.36,1.36,0,0,0,.62-1.14,1.33,1.33,0,0,0-.65-1,4.93,4.93,0,0,0-1.72-.6h0a4,4,0,0,1-1.73-.6,1.55,1.55,0,0,1-.78-1.25c0-1.06,1.09-1.86,2.44-1.86a4,4,0,0,1,2.25.86.2.2,0,0,1,.07.25.2.2,0,0,1-.27.06,3.8,3.8,0,0,0-2-.79,2.51,2.51,0,0,0-1.51.46,1.24,1.24,0,0,0-.55,1,1.12,1.12,0,0,0,.59.94,4.63,4.63,0,0,0,1.61.56h0a5.62,5.62,0,0,1,1.87.64,1.68,1.68,0,0,1,.83,1.35c0,1.15-1.16,2-2.59,2a4.52,4.52,0,0,1-2.7-1.05A.15.15,0,0,1,268.78,226.21Z" style="fill:#263238"></path><path d="M143.78,260.09H132l-.42-11.82h11.82Zm-10.85-1h9.82l-.35-9.82h-9.81Z" style="fill:#263238"></path><path d="M156.12,249.28a.18.18,0,0,1,.16-.2h5.61a.19.19,0,0,1,.19.2.17.17,0,0,1-.17.18h-5.42l.16,4.68h4.77a.19.19,0,0,1,.19.18.17.17,0,0,1-.17.19h-4.77l.17,4.88a.19.19,0,0,1-.19.2.19.19,0,0,1-.17-.2Z" style="fill:#263238"></path><path d="M164.52,255.91a3.49,3.49,0,0,1,3.44-3.68,3.74,3.74,0,0,1,3.64,3.4h0v.05a.19.19,0,0,1-.17.18h-6.54v0a3.41,3.41,0,0,0,3.31,3.3,3,3,0,0,0,2.59-1.5c.06-.09.16-.09.27,0a.18.18,0,0,1,.05.25,3.41,3.41,0,0,1-2.9,1.67A3.84,3.84,0,0,1,164.52,255.91Zm.37-.41h6.33a3.36,3.36,0,0,0-3.25-2.88A3.1,3.1,0,0,0,164.89,255.5Z" style="fill:#263238"></path><path d="M173.65,255.91a3.5,3.5,0,0,1,3.44-3.68,3.75,3.75,0,0,1,3.65,3.4h0v.05a.2.2,0,0,1-.18.18H174v0a3.41,3.41,0,0,0,3.31,3.3,3,3,0,0,0,2.58-1.5.2.2,0,0,1,.27,0,.19.19,0,0,1,.06.25,3.43,3.43,0,0,1-2.9,1.67A3.84,3.84,0,0,1,173.65,255.91Zm.38-.41h6.33a3.38,3.38,0,0,0-3.25-2.88A3.08,3.08,0,0,0,174,255.5Z" style="fill:#263238"></path><path d="M189.86,259.59a.21.21,0,0,1-.19-.2l-.06-1.81a3.43,3.43,0,0,1-3.1,2,3.8,3.8,0,0,1-3.7-3.69,3.48,3.48,0,0,1,3.45-3.67,3.68,3.68,0,0,1,3.23,2l-.17-4.95c0-.11.08-.23.17-.23a.22.22,0,0,1,.2.23l.23,6.44v.33l.12,3.31A.19.19,0,0,1,189.86,259.59Zm-.31-3.83a3.38,3.38,0,0,0-3.28-3.15,3.12,3.12,0,0,0-3.08,3.29,3.4,3.4,0,0,0,3.31,3.31,3.12,3.12,0,0,0,3.05-3.31Z" style="fill:#263238"></path><path d="M200.05,252.43a.19.19,0,0,1-.19.18h-1.2l.2,5.85a.82.82,0,0,0,.8.77.19.19,0,1,1,0,.37,1.19,1.19,0,0,1-1.18-1.14l-.2-5.85H197a.21.21,0,0,1-.21-.18.2.2,0,0,1,.19-.2h1.26l-.1-2.94a.18.18,0,0,1,.17-.19.2.2,0,0,1,.2.19l.11,2.94h1.2A.21.21,0,0,1,200.05,252.43Z" style="fill:#263238"></path><path d="M209,255.22a2.71,2.71,0,0,0-2.69-2.6,2.5,2.5,0,0,0-2.52,2.49l.15,4.28a.21.21,0,0,1-.07.17l-.08,0h0a.24.24,0,0,1-.13,0,.19.19,0,0,1-.07-.12v0l-.14-4.17v-.12l-.2-5.82a.19.19,0,1,1,.37,0l.16,4.5a2.87,2.87,0,0,1,2.56-1.55,3.1,3.1,0,0,1,3.07,3l.15,4.17a.2.2,0,0,1-.18.2.2.2,0,0,1-.2-.2Z" style="fill:#263238"></path><path d="M212.08,255.91a3.5,3.5,0,0,1,3.44-3.68,3.75,3.75,0,0,1,3.65,3.4h0v.05a.2.2,0,0,1-.18.18h-6.54v0a3.41,3.41,0,0,0,3.31,3.3,3,3,0,0,0,2.58-1.5.2.2,0,0,1,.27,0,.19.19,0,0,1,.06.25,3.43,3.43,0,0,1-2.9,1.67A3.84,3.84,0,0,1,212.08,255.91Zm.38-.41h6.33a3.38,3.38,0,0,0-3.25-2.88A3.08,3.08,0,0,0,212.46,255.5Z" style="fill:#263238"></path><path d="M229.37,252.23a3.86,3.86,0,0,1,2.36.8.21.21,0,0,1,0,.28.18.18,0,0,1-.26,0,3.54,3.54,0,0,0-2.12-.72,3.2,3.2,0,0,0-3.29,3.3,3.48,3.48,0,0,0,3.52,3.3,3.34,3.34,0,0,0,2.07-.73.2.2,0,0,1,.26.31,3.75,3.75,0,0,1-2.32.8,3.94,3.94,0,0,1-3.91-3.68A3.59,3.59,0,0,1,229.37,252.23Z" style="fill:#263238"></path><path d="M240.82,252.43l.24,7a.17.17,0,0,1-.17.2.19.19,0,0,1-.2-.2l-.07-1.83a3.31,3.31,0,0,1-3,2,3.74,3.74,0,0,1-3.59-3.68,3.44,3.44,0,0,1,3.34-3.68,3.62,3.62,0,0,1,3.16,2l-.07-1.83a.2.2,0,0,1,.19-.2A.21.21,0,0,1,240.82,252.43Zm-.25,3.48a3.34,3.34,0,0,0-3.21-3.29,3.06,3.06,0,0,0-3,3.29,3.34,3.34,0,0,0,3.2,3.3A3.08,3.08,0,0,0,240.57,255.91Z" style="fill:#263238"></path><path d="M246.43,252.43a.19.19,0,0,1-.19.18H245l.2,5.85a.82.82,0,0,0,.8.77.19.19,0,1,1,0,.37,1.19,1.19,0,0,1-1.18-1.14l-.21-5.85H243.4a.2.2,0,0,1-.2-.18.2.2,0,0,1,.19-.2h1.26l-.1-2.94a.18.18,0,0,1,.17-.19.2.2,0,0,1,.2.19l.11,2.94h1.2A.21.21,0,0,1,246.43,252.43Z" style="fill:#263238"></path><path d="M144.9,292.18H133.09l-.41-11.82h11.81Zm-10.85-1h9.82l-.35-9.82h-9.81Z" style="fill:#263238"></path><path d="M167.61,291.66c-.06,0-.09-.06-.11-.12l-3.19-7-2.72,7.06a.17.17,0,0,1-.1.1h0s0,0,0,0h0s0,0-.06,0h0s0,0-.05,0h0a.14.14,0,0,1-.05-.09l-4.58-10.07a.16.16,0,0,1,.08-.24.2.2,0,0,1,.26.09l4.4,9.69,2.7-7a.18.18,0,0,1,.19-.13c.07,0,.16,0,.21.13l3.17,7,3.74-9.69a.19.19,0,0,1,.25-.09.18.18,0,0,1,.12.24l-3.89,10.1s0,0-.06.07a0,0,0,0,0,0,0l-.09,0h0a.06.06,0,0,1,0,0Z" style="fill:#263238"></path><path d="M178.81,284.52l.24,7a.18.18,0,0,1-.17.2.2.2,0,0,1-.21-.2l-.06-1.83a3.31,3.31,0,0,1-3,2A3.74,3.74,0,0,1,172,288a3.44,3.44,0,0,1,3.33-3.68,3.64,3.64,0,0,1,3.16,2l-.06-1.83a.2.2,0,0,1,.19-.2A.22.22,0,0,1,178.81,284.52Zm-.26,3.48a3.34,3.34,0,0,0-3.2-3.29,3.08,3.08,0,0,0-3,3.29,3.35,3.35,0,0,0,3.21,3.3A3.07,3.07,0,0,0,178.55,288Z" style="fill:#263238"></path><path d="M184.41,284.52a.17.17,0,0,1-.18.18H183l.2,5.85a.81.81,0,0,0,.79.77.18.18,0,0,1,.2.18.18.18,0,0,1-.18.19,1.19,1.19,0,0,1-1.18-1.14l-.21-5.85h-1.26a.19.19,0,0,1-.2-.18.19.19,0,0,1,.19-.2h1.26l-.1-2.94a.17.17,0,0,1,.17-.19.21.21,0,0,1,.2.19l.1,2.94h1.2A.2.2,0,0,1,184.41,284.52Z" style="fill:#263238"></path><path d="M187,288a3.5,3.5,0,0,1,3.44-3.68,3.74,3.74,0,0,1,3.65,3.4h0v0a.2.2,0,0,1-.18.18h-6.53v0a3.41,3.41,0,0,0,3.31,3.3,3,3,0,0,0,2.58-1.5.2.2,0,0,1,.27,0,.19.19,0,0,1,.06.25,3.43,3.43,0,0,1-2.9,1.67A3.84,3.84,0,0,1,187,288Zm.38-.4h6.33a3.37,3.37,0,0,0-3.25-2.89A3.09,3.09,0,0,0,187.33,287.6Z" style="fill:#263238"></path><path d="M196.31,288.05a.14.14,0,0,1,0-.09l-.12-3.44a.19.19,0,0,1,.17-.2.19.19,0,0,1,.19.2l.09,2.49a6.34,6.34,0,0,1,.43-.87,3.43,3.43,0,0,1,2.86-1.82.21.21,0,0,1,.21.2.18.18,0,0,1-.19.19,2.74,2.74,0,0,0-2.1,1,6.39,6.39,0,0,0-1,1.82l-.17.51.12,3.43a.16.16,0,0,1-.17.2.21.21,0,0,1-.19-.2Z" style="fill:#263238"></path><path d="M209.72,284.52a.18.18,0,0,1-.19.18h-1.2l.21,5.85a.8.8,0,0,0,.79.77.2.2,0,0,1,.2.18.19.19,0,0,1-.19.19,1.19,1.19,0,0,1-1.18-1.14l-.2-5.85H206.7a.19.19,0,1,1,0-.38h1.26l-.1-2.94a.18.18,0,0,1,.17-.19.2.2,0,0,1,.2.19l.11,2.94h1.2A.21.21,0,0,1,209.72,284.52Z" style="fill:#263238"></path><path d="M218.64,287.31a2.71,2.71,0,0,0-2.69-2.6,2.51,2.51,0,0,0-2.52,2.5l.15,4.27a.21.21,0,0,1-.07.17l-.08,0h0a.24.24,0,0,1-.13-.05.24.24,0,0,1-.07-.12v0l-.14-4.17v-.12l-.2-5.82a.19.19,0,1,1,.37,0l.16,4.5a2.89,2.89,0,0,1,2.56-1.55,3.1,3.1,0,0,1,3.07,3l.15,4.17a.2.2,0,0,1-.18.2.2.2,0,0,1-.2-.2Z" style="fill:#263238"></path><path d="M221.75,288a3.5,3.5,0,0,1,3.44-3.68,3.75,3.75,0,0,1,3.65,3.4h0v0a.2.2,0,0,1-.18.18h-6.54v0a3.41,3.41,0,0,0,3.31,3.3,3,3,0,0,0,2.58-1.5.2.2,0,0,1,.27,0,.19.19,0,0,1,.06.25,3.43,3.43,0,0,1-2.9,1.67A3.84,3.84,0,0,1,221.75,288Zm.38-.4h6.33a3.38,3.38,0,0,0-3.25-2.89A3.09,3.09,0,0,0,222.13,287.6Z" style="fill:#263238"></path><path d="M235.91,288.11v-.3l-.11-3.29a.18.18,0,0,1,.19-.2.18.18,0,0,1,.18.2l.07,1.81a3.34,3.34,0,0,1,3.06-2A3.73,3.73,0,0,1,243,288a3.43,3.43,0,0,1-3.41,3.64,3.67,3.67,0,0,1-3.21-2l.18,5.08a.18.18,0,0,1-.17.2.2.2,0,0,1-.21-.2Zm.37-.15a3.35,3.35,0,0,0,3.25,3.25,3.08,3.08,0,0,0,3-3.25,3.36,3.36,0,0,0-3.26-3.26,3.07,3.07,0,0,0-3,3.12Z" style="fill:#263238"></path><path d="M245.38,281.37a.19.19,0,0,1,.19-.2.19.19,0,0,1,.19.2l.35,10.11a.18.18,0,0,1-.17.2.19.19,0,0,1-.2-.2Z" style="fill:#263238"></path><path d="M255.26,284.52l.24,7a.17.17,0,0,1-.17.2.19.19,0,0,1-.2-.2l-.07-1.83a3.3,3.3,0,0,1-3,2,3.74,3.74,0,0,1-3.59-3.68,3.44,3.44,0,0,1,3.34-3.68,3.64,3.64,0,0,1,3.16,2l-.07-1.83a.2.2,0,0,1,.19-.2A.21.21,0,0,1,255.26,284.52ZM255,288a3.35,3.35,0,0,0-3.21-3.29,3.07,3.07,0,0,0-3,3.29,3.34,3.34,0,0,0,3.2,3.3A3.08,3.08,0,0,0,255,288Z" style="fill:#263238"></path><path d="M263.91,287.29a2.69,2.69,0,0,0-2.67-2.59,2.49,2.49,0,0,0-2.51,2.59l.15,4.19a.2.2,0,0,1-.18.2h-.06s0,0,0,0,0,0-.05,0,0,0,0,0a.12.12,0,0,1,0-.08v0l-.14-4.19v-.11l-.09-2.68c0-.12.08-.18.19-.18a.17.17,0,0,1,.18.18l.05,1.35a2.86,2.86,0,0,1,2.54-1.53,3.1,3.1,0,0,1,3.06,3l.15,4.19a.2.2,0,0,1-.19.2.19.19,0,0,1-.19-.2Z" style="fill:#263238"></path><path d="M269.91,284.52a.17.17,0,0,1-.19.18h-1.19l.2,5.85a.8.8,0,0,0,.79.77.19.19,0,1,1,0,.37,1.19,1.19,0,0,1-1.18-1.14l-.2-5.85h-1.26a.19.19,0,0,1-.2-.18.19.19,0,0,1,.19-.2h1.26l-.11-2.94a.18.18,0,0,1,.18-.19.21.21,0,0,1,.2.19l.1,2.94h1.2A.2.2,0,0,1,269.91,284.52Z" style="fill:#263238"></path><path d="M273.09,290.39c.05-.11.17-.12.27,0a4.28,4.28,0,0,0,2.46.94,2.67,2.67,0,0,0,1.6-.49,1.36,1.36,0,0,0,.62-1.14,1.33,1.33,0,0,0-.65-1,5.08,5.08,0,0,0-1.71-.6h-.05a4,4,0,0,1-1.73-.6,1.57,1.57,0,0,1-.78-1.24c0-1.07,1.09-1.87,2.44-1.87a4,4,0,0,1,2.25.86.2.2,0,0,1,.07.25.21.21,0,0,1-.27.07,3.73,3.73,0,0,0-2-.8,2.46,2.46,0,0,0-1.52.47,1.24,1.24,0,0,0-.55,1,1.13,1.13,0,0,0,.59.93,4.84,4.84,0,0,0,1.61.57h0a5.41,5.41,0,0,1,1.87.63,1.68,1.68,0,0,1,.83,1.35c0,1.15-1.16,2-2.59,2a4.52,4.52,0,0,1-2.7-1.05A.16.16,0,0,1,273.09,290.39Z" style="fill:#263238"></path><polygon points="134.56 162.34 130.38 157.18 131.92 155.96 134.24 158.81 139.79 149.05 141.54 150.09 134.56 162.34" style="fill:#C53F3F"></polygon><polygon points="135.69 194.51 131.51 189.35 133.04 188.13 135.36 190.98 140.91 181.23 142.66 182.26 135.69 194.51" style="fill:#C53F3F"></polygon><polygon points="136.8 226.35 132.62 221.19 134.16 219.97 136.47 222.82 142.02 213.06 143.77 214.1 136.8 226.35" style="fill:#C53F3F"></polygon></g><g id="freepik--Chair--inject-12"><rect x="360.1" y="370.21" width="54.46" height="4" style="fill:#c7c7c7"></rect><polygon points="364.64 219.05 364.36 238 362.51 370.21 362.45 374.21 361.64 426.94 358.56 426.94 357.75 374.21 357.69 370.21 355.86 238 355.56 219.05 364.64 219.05" style="fill:#c7c7c7"></polygon><polygon points="355.56 219.05 364.64 219.05 364.36 238 355.86 238 355.56 219.05" style="fill:#a6a6a6"></polygon><polygon points="419.1 219.05 418.81 238 416.1 426.94 413.01 426.94 412.2 374.21 412.14 370.21 410.31 238 410.01 219.05 419.1 219.05" style="fill:#c7c7c7"></polygon><polygon points="419.1 219.05 418.81 238 410.31 238 410.01 219.05 419.1 219.05" style="fill:#a6a6a6"></polygon><rect x="332.91" y="370.21" width="53.46" height="4" style="fill:#c7c7c7"></rect><polygon points="337.44 219.05 337.15 238 335.31 370.21 335.25 374.21 334.44 426.94 331.37 426.94 328.65 238 328.37 219.05 337.44 219.05" style="fill:#c7c7c7"></polygon><polygon points="328.37 219.05 337.44 219.05 337.15 238 328.65 238 328.37 219.05" style="fill:#a6a6a6"></polygon><polygon points="390.9 219.05 390.62 238 388.77 370.21 388.71 374.21 387.9 426.94 384.82 426.94 384.01 374.21 383.95 370.21 382.12 238 381.82 219.05 390.9 219.05" style="fill:#c7c7c7"></polygon><polygon points="381.82 219.05 390.9 219.05 390.62 238 382.12 238 381.82 219.05" style="fill:#a6a6a6"></polygon><rect x="324.75" y="210.23" width="99.06" height="10.38" style="fill:#C53F3F"></rect><rect x="324.76" y="210.23" width="78.38" height="10.38" style="fill:#263238;opacity:0.1"></rect><polygon points="430.56 138.85 423.8 210.23 366.54 210.23 365.96 201.46 360.5 138.07 422.08 138.76 430.56 138.85" style="fill:#C53F3F"></polygon><polygon points="422.08 138.76 417.44 210.23 366.54 210.23 365.96 201.46 360.5 138.07 422.08 138.76" style="fill:#263238;opacity:0.1"></polygon></g><g id="freepik--Character--inject-12"><path d="M315.57,386.2c2.48-.42,62.48-32.5,64-35.17.58-1-3.58-10-8.92-20.77-1.16-2.32-2.36-4.71-3.6-7.13-8-15.72-16.88-32.21-16.88-32.21L310,312.27l18,31.62,3.94,6.95s-17.47,22.56-18.82,25.66S313.1,386.62,315.57,386.2Z" style="fill:#f7a9a0"></path><path d="M315.57,386.2c2.48-.42,62.48-32.5,64-35.17.7-1.24-5.59-14.28-12.52-27.9L328,343.89l3.94,6.95s-17.47,22.56-18.82,25.66S313.1,386.62,315.57,386.2Z" style="fill:#fff"></path><path d="M315.57,386.2c2.48-.42,62.48-32.5,64-35.17.58-1-3.58-10-8.92-20.77l-38.75,20.58s-17.47,22.56-18.82,25.66S313.1,386.62,315.57,386.2Z" style="fill:#C53F3F"></path><path d="M315.15,383.34c9.93-5.62,50.49-27.38,60.73-32.18.08,0,.11,0,0,.06-9.71,5.79-50.45,27.21-60.67,32.29C315,383.61,314.94,383.46,315.15,383.34Z" style="fill:#263238"></path><path d="M315.77,372.28a9.15,9.15,0,0,1,7.33-.76,8.82,8.82,0,0,1,5.12,4.17c0,.06-.08.12-.12.06a10.58,10.58,0,0,0-12.26-3.34C315.76,372.44,315.69,372.33,315.77,372.28Z" style="fill:#263238"></path><path d="M328.53,353.92c4-2.21,9.42-3.28,13.68-1.33.17.08.06.31-.09.32a63.67,63.67,0,0,0-13.4,1.54A.28.28,0,0,1,328.53,353.92Z" style="fill:#263238"></path><path d="M326.07,356.8c4-2.21,9.42-3.29,13.68-1.33.17.07.06.31-.09.31a63,63,0,0,0-13.4,1.55A.28.28,0,0,1,326.07,356.8Z" style="fill:#263238"></path><path d="M323.61,359.67c4-2.21,9.42-3.28,13.68-1.33.17.08.06.31-.09.31a63,63,0,0,0-13.4,1.55A.28.28,0,0,1,323.61,359.67Z" style="fill:#263238"></path><path d="M321.15,362.54c4-2.21,9.42-3.28,13.68-1.33.17.08.06.31-.09.32a63,63,0,0,0-13.4,1.55A.29.29,0,0,1,321.15,362.54Z" style="fill:#263238"></path><path d="M368.21,343c4.52-2.4,8.26,4.63,3.73,7S363.68,345.38,368.21,343Z" style="fill:#263238"></path><path d="M321.91,351.24c3.67,1.64,7.92,1.63,11.85,2.08a.55.55,0,0,0,.55-.71c.07,0,.12-.1.06-.18a23.88,23.88,0,0,0-9.16-8.34c-2.19-1.08-5.64-1.36-6.78,1.42S319.77,350.28,321.91,351.24Zm-2-3.24c-1.94-4.59,3.81-3.34,5.39-2.48a25.53,25.53,0,0,1,2.93,1.93c1.95,1.44,3.66,3.13,5.46,4.75-1.92-.34-3.85-.51-5.77-.78C325.65,351.1,321,350.53,319.94,348Z" style="fill:#263238"></path><path d="M347.3,342.21c-1.72-2.46-5-1.42-6.93.12a24,24,0,0,0-7.09,10.16.12.12,0,0,0,.1.16.57.57,0,0,0,.7.58c3.73-1.31,7.88-2.25,11.09-4.66C347.05,347.16,348.92,344.54,347.3,342.21Zm-8,7.88c-1.82.69-3.66,1.28-5.46,2,1.39-2,2.69-4,4.28-5.84a26.25,26.25,0,0,1,2.42-2.53c1.36-1.19,6.69-3.68,5.81,1.23C345.9,347.69,341.49,349.27,339.33,350.09Z" style="fill:#263238"></path><path d="M338.05,255C339,266.71,366,318,366,318l-42.5,21.31s-32.77-57.77-31-83.77c1.51-22.06,39.7-49.86,63.19-77h31.66c-10,30.77-46.64,64.74-49.2,75.11a4.63,4.63,0,0,0-.06,1.44Z" style="fill:#37474f"></path><path d="M323.42,330.79c7-3.73,4.91-2.75,11.91-6.4,3.43-1.79,20.63-10.8,24.1-11.94a.08.08,0,0,1,.07.14c-3,2.14-20.35,10.79-23.8,12.51-7.07,3.52-5.08,2.44-12.18,5.88A.11.11,0,1,1,323.42,330.79Z" style="fill:#263238"></path><path d="M383.59,183.32a375.89,375.89,0,0,1-34,48.38c-3.08,3.7-6.26,7.3-9.45,10.91-2.7,3-5.43,6.43-5.94,10.61-.58,4.66,1.45,9.19,3.08,13.43,1.8,4.68,3.62,9.35,5.52,14,2.06,5,4.21,10,6.61,14.81q1.83,3.72,3.84,7.35,1,1.81,2.07,3.6c.35.6,2.83,4.69,3.19,5.29.12.19.42.42.12-.08-.68-1.12-3.45-5.76-4.09-6.9-2.52-4.5-4.77-9.13-6.9-13.83s-4.16-9.58-6.09-14.43S337.65,266.85,336,262a20.62,20.62,0,0,1-1.4-7.79,14,14,0,0,1,2.63-7.12c2.72-4,6.36-7.48,9.5-11.17q9.75-11.49,18.53-23.76a328,328,0,0,0,18.48-28.74C383.76,183.31,383.64,183.25,383.59,183.32Z" style="fill:#263238"></path><path d="M347.53,448c2.43.62,70.29-4.31,72.76-6.13.94-.69.8-10.61.29-22.6-.11-2.59-.24-5.26-.39-8-.93-17.62-2.33-36.29-2.33-36.29l-45.4,3.17,3.58,36.2.78,7.95s-25.14,13.5-27.63,15.8S345.1,447.34,347.53,448Z" style="fill:#f7a9a0"></path><path d="M347.53,448c2.43.62,70.29-4.31,72.76-6.13,1.14-.84.7-15.32-.1-30.58L376,414.33l.78,7.95s-25.14,13.5-27.63,15.8S345.1,447.34,347.53,448Z" style="fill:#fff"></path><path d="M347.53,448c2.43.62,70.29-4.31,72.76-6.13.94-.69.8-10.61.29-22.6l-43.76,3s-25.14,13.5-27.63,15.8S345.1,447.34,347.53,448Z" style="fill:#C53F3F"></path><path d="M348.31,445.17c11.35-1.1,57.26-4.49,68.57-4.72.09,0,.09.06,0,.07-11.23,1.34-57.16,4.36-68.56,4.84C348.08,445.37,348.07,445.19,348.31,445.17Z" style="fill:#263238"></path><path d="M353.37,435.32a9.15,9.15,0,0,1,7,2.28,8.86,8.86,0,0,1,3,5.89c0,.07-.12.08-.13,0a10.61,10.61,0,0,0-9.85-8A.07.07,0,0,1,353.37,435.32Z" style="fill:#263238"></path><path d="M372.49,423.73c4.55-.39,9.94.83,13,4.35.12.13-.07.3-.21.24a62.81,62.81,0,0,0-12.87-4A.29.29,0,0,1,372.49,423.73Z" style="fill:#263238"></path><path d="M369.07,425.35c4.55-.39,9.95.83,13.05,4.35.12.14-.08.31-.22.25a63.57,63.57,0,0,0-12.86-4A.29.29,0,0,1,369.07,425.35Z" style="fill:#263238"></path><path d="M365.66,427c4.55-.39,9.94.83,13,4.35.12.13-.07.3-.21.24a62.81,62.81,0,0,0-12.87-4A.29.29,0,0,1,365.66,427Z" style="fill:#263238"></path><path d="M362.24,428.61c4.55-.4,9.95.83,13.05,4.34.12.14-.08.31-.22.25a63.46,63.46,0,0,0-12.87-4A.28.28,0,0,1,362.24,428.61Z" style="fill:#263238"></path><path d="M413.2,429.86c5.11-.36,5.67,7.58.55,7.94S408.08,430.21,413.2,429.86Z" style="fill:#263238"></path><path d="M367.53,418.58c2.69,3,6.58,4.72,10,6.73a.57.57,0,0,0,.8-.43.12.12,0,0,0,.13-.14,24,24,0,0,0-5-11.34c-1.57-1.88-4.61-3.54-6.77-1.46S366,416.84,367.53,418.58Zm-.48-3.75c.09-5,4.84-1.51,5.94-.08a26.75,26.75,0,0,1,1.88,2.95c1.2,2.11,2.08,4.36,3.06,6.56-1.61-1.08-3.3-2-5-3.05C371,420,367,417.58,367.05,414.83Z" style="fill:#263238"></path><path d="M394.4,420.66c-.58-3-4-3.34-6.38-2.71a24.07,24.07,0,0,0-10.61,6.4.12.12,0,0,0,0,.19.56.56,0,0,0,.4.81c3.94.32,8.11,1.15,12,.26C392.16,425.08,394.94,423.45,394.4,420.66Zm-10.49,4c-1.94-.12-3.86-.32-5.81-.36,2.08-1.24,4.09-2.57,6.28-3.6a27.56,27.56,0,0,1,3.24-1.33c1.73-.53,7.61-.65,4.81,3.48C390.89,425.09,386.23,424.75,383.91,424.62Z" style="fill:#263238"></path><path d="M370.74,409.93l51.86-3s-20.77-181-17.27-187.83c7.93-15.49,8.65-22.24-.08-40.59l-39.49,0s2.23,19.32,2.08,20.15C358,253.08,370.74,409.93,370.74,409.93Z" style="fill:#37474f"></path><path d="M372.76,400.8c10.29-1.25,42.54-3,46-2.65a.08.08,0,0,1,0,.16c-3.37.8-20.33,2-46,2.7A.11.11,0,0,1,372.76,400.8Z" style="fill:#263238"></path><path d="M364.34,180.59c.63,5.06.83,13.75,3.78,13.75s1.94-10.59,1.91-13c0-2.21.74-2,1,.66.55,7.07.66,13.32-3.12,13.2s-4.25-11.09-4.27-13.6C363.57,180.27,364.14,179,364.34,180.59Z" style="fill:#263238"></path><path d="M367.94,194.68a22.22,22.22,0,0,1,.14,5.37c-.05.14-.62.06-.68-.06-.39-.72-.27-4.21-.41-5.14A.48.48,0,0,1,367.94,194.68Z" style="fill:#263238"></path><path d="M367,201c-1,4.51-1.94,13.07-1.53,15.3,0,.2.34.25.37,0,.29-2.4,1.54-14,1.67-15.16S367.28,199.74,367,201Z" style="fill:#263238"></path><path d="M374.87,204.15a16.82,16.82,0,0,0-1.95-1.5c-.68-.49-1.36-1-2.07-1.41-1.43-.92-2.92-1.75-4.42-2.56s-3-1.49-4.5-2.17-3.28-1.24-4.87-1.95c-.1,0-.17.09-.08.14,1.52.75,2.93,1.71,4.41,2.54s3,1.69,4.44,2.52,2.89,1.66,4.35,2.46c.76.42,1.53.83,2.3,1.23a18.47,18.47,0,0,0,2.18,1.09C374.88,204.62,375,204.3,374.87,204.15Z" style="fill:#263238"></path><path d="M412.09,374.07q-1.48-10.74-2.8-21.5-2.64-21.51-4.61-43.11t-3.29-43.22q-.66-10.83-1.16-21.65c-.33-7.16-.82-16.73-.77-23.9,0-3.64,6.29-6.74,7.11-17.4a40.34,40.34,0,0,0-2.24-17.92,37.07,37.07,0,0,0-1.79-4.08c-.05-.09-.18,0-.13.08a39.58,39.58,0,0,1,4,18.75,32.07,32.07,0,0,1-1.54,9.6c-1.53,4.34-5.6,8-5.72,10.29-.17,3.4-.09,6.34,0,9.74s.25,7.07.39,10.61Q400,251.19,400.6,262q1.23,21.53,3.12,43T408.18,348q2.56,21.42,5.8,42.75c.25,1.64.52,3.26.84,4.88,0,.17.33.12.31-.06C414.31,388.35,413.07,381.22,412.09,374.07Z" style="fill:#263238"></path><path d="M355.57,80.65c-7.13,4.48-10.95,13.64-10.95,13.64s-7.76,8.36-7.37,13.92a9.75,9.75,0,0,0,4.6,7.79l.1-3s1,4.13,7,7,14.63,2.84,19.43,1.63a17,17,0,0,0,7.58-4.14l-2.56,3.83a12.74,12.74,0,0,0,11.19-4.49c5.06-5.65-3.21-17.28-3.64-19.47s1.74-17-14.16-18C366.75,79.41,360.48,77.56,355.57,80.65Z" style="fill:#263238"></path><path d="M339.72,115.13a10.07,10.07,0,0,1-3.1-5.17,9,9,0,0,1,.33-6,20.22,20.22,0,0,1,4.34-5.82c1.72-1.82,3.58-3.51,5.27-5.36.09-.1-.06-.24-.17-.16a55.89,55.89,0,0,0-4.93,4.16,26,26,0,0,0-4.18,4.47,9.89,9.89,0,0,0-1.91,5.21,9.51,9.51,0,0,0,1,4.47,20.59,20.59,0,0,0,3.23,4.27C339.68,115.32,339.8,115.19,339.72,115.13Z" style="fill:#263238"></path><path d="M387.34,110.5c-.63-5.78-4.69-10.28-6.57-15.62-1-2.89-1.62-6-3.19-8.64,0-.07-.17,0-.13.07,1.25,2.37,1.7,5,2.42,7.52a39.33,39.33,0,0,0,3.13,7.35c2.22,4.34,4.89,9.47,3,14.41-.85,2.28-2.83,4.58-5.41,4.77-.1,0-.08.17,0,.15a7.71,7.71,0,0,0,5.17-3.28A9.84,9.84,0,0,0,387.34,110.5Z" style="fill:#263238"></path><path d="M387.24,112a10.25,10.25,0,0,0,0-6.13,14.34,14.34,0,0,0-3.47-5.08c-1.63-1.71-3.38-3.37-4.14-5.67,0-.1-.17,0-.14.06,1.18,3.77,4.5,6.16,6.36,9.52,2.12,3.85,1.07,8.53-1.72,11.76a16.64,16.64,0,0,1-6.37,4.42c-.05,0,0,.08,0,.06C381.91,119.38,385.93,116.44,387.24,112Z" style="fill:#263238"></path><path d="M366.44,140.61c-2,10.74-11.24,46.07-21.2,50.48-6.54,2.89-34.74,5.9-40.85.34-2.66-2.43-3.24-23,.61-23s26.62-1.6,29.18-2.95,18.13-29.05,24.56-36.45C369.81,116.28,367.49,134.82,366.44,140.61Z" style="fill:#f7a9a0"></path><path d="M313.07,165.29l5.55,30s22.74-.51,31.37-6.06c10.47-6.73,18.58-46.23,19.46-52.61,1.43-10.47-1-16-6-13.29-1.95,1-4.27,3.33-6.9,7.09s-18,28.67-23.38,34C330.14,167.33,313.07,165.29,313.07,165.29Z" style="fill:#455a64"></path><path d="M313.07,165.28l5.56,30s3.77-.08,8.82-.56c7.36-.69,17.43-2.21,22.54-5.5,10.47-6.73,18.59-46.23,19.46-52.61,1-7.57,0-12.57-2.49-13.72a3.91,3.91,0,0,0-3.52.43c-1.93,1-4.26,3.33-6.89,7.08-2.75,3.92-18,28.68-23.38,34C330.14,167.34,313.07,165.28,313.07,165.28Z" style="fill:#ebebeb"></path><path d="M323.92,193.5c-.69-4.45-4.17-22.58-5.19-26.45-.07-.27-.26-.29-.22,0,1.74,13.4,4.33,22.14,5.23,26.47A.09.09,0,0,0,323.92,193.5Z" style="fill:#263238"></path><path d="M369.45,136.6c-.87,6.38-9,45.88-19.46,52.61-2.58,1.66-6.44,2.87-10.57,3.76l24.7-70a3.46,3.46,0,0,1,2.84-.11C369.49,124,370.49,129,369.45,136.6Z" style="fill:#263238"></path><path d="M409.49,182.19a49.93,49.93,0,0,1-5.9,2.58l-1,.33a67.94,67.94,0,0,1-17.38,3.31c-17.66,1.18-34-3.38-35.29-5.74l2.84-17.62.15-1,.38-2.39s-4-5.79-3.91-12.21a9.27,9.27,0,0,1,.32-2.05c.06-.3.15-.6.25-.93,1.56-5.12,6.11-12.58,9.93-17.72a40.7,40.7,0,0,1,4.1-4.88c4.25-4,8.74-4.7,13.06-3.26h0a19,19,0,0,1,5.46,3,40.27,40.27,0,0,1,9.86,11.8c2.9,5,5.86,12.25,8.49,19.55.1.26.18.51.27.77C405.9,169,409.49,182.19,409.49,182.19Z" style="fill:#ebebeb"></path><path d="M357.4,132.39c-1.18,2-2.48,3.86-3.71,5.79.5-1.37,1-2.74,1.53-4.09,0,0,0-.05,0,0a27.68,27.68,0,0,0-2.11,5.1,37.67,37.67,0,0,0-2.46,4.55,18.33,18.33,0,0,0-1.66,6,15.44,15.44,0,0,0,.87,6.14,39.07,39.07,0,0,0,3.09,6.5c.15.28.54,0,.41-.25-1.73-3.69-3.64-7.57-3.47-11.75s2.1-8,4-11.53a55.63,55.63,0,0,1,3.7-6.33C357.6,132.39,357.46,132.3,357.4,132.39Z" style="fill:#263238"></path><path d="M375.08,122.8c-.23,1-5.13,7.92-9.91,7.76-1.56-.05-1.65-8.57-1.65-8.57l-.15-.63-2.1-8.79,10.26-6.8,1.49-.9s.41,2.45.9,5.49c0,.14,0,.28.07.44s.06.33.08.49c.08.45.16.92.23,1.38s.11.7.15,1.07.09.74.15,1.11A59.13,59.13,0,0,1,375.08,122.8Z" style="fill:#f7a9a0"></path><path d="M373.92,110.36a18.13,18.13,0,0,1-10.55,11l-2.1-8.79,10.26-6.8,1.49-.9S373.43,107.32,373.92,110.36Z" style="fill:#263238"></path><path d="M348.41,97.85c-2.38,15.67,6.74,18.87,10.12,19.38,3.07.47,13.58,1.65,17.57-13.69s-2.55-21.42-9.51-22.85S350.79,82.17,348.41,97.85Z" style="fill:#f7a9a0"></path><path d="M351.05,96.86c.38,0,.72-.09,1.09-.14a1.81,1.81,0,0,0,1.08-.35.57.57,0,0,0,0-.69,1.38,1.38,0,0,0-1.34-.44,2.12,2.12,0,0,0-1.35.62A.61.61,0,0,0,351.05,96.86Z" style="fill:#263238"></path><path d="M362,97.23a9.71,9.71,0,0,1-1.05-.31,1.76,1.76,0,0,1-1-.52.56.56,0,0,1,.06-.69,1.4,1.4,0,0,1,1.4-.21,2,2,0,0,1,1.22.83A.59.59,0,0,1,362,97.23Z" style="fill:#263238"></path><path d="M359.43,100.08s.08.06.08.11c-.15,1.07-.14,2.32.8,2.78,0,0,0,.06,0,.06C359.12,102.74,359.12,101.08,359.43,100.08Z" style="fill:#263238"></path><path d="M360.51,99.06c1.74,0,1.51,3.53-.1,3.49S359.05,99,360.51,99.06Z" style="fill:#263238"></path><path d="M361.18,99.29c.29.22.57.59.93.65s.77-.28,1.07-.61c0,0,.06,0,.05,0,0,.67-.33,1.34-1.05,1.39s-1.09-.57-1.21-1.25C360.94,99.38,361.06,99.2,361.18,99.29Z" style="fill:#263238"></path><path d="M353.12,99.27s-.09,0-.09.09c0,1.08-.24,2.32-1.24,2.62a0,0,0,0,0,0,.06C353,101.94,353.26,100.3,353.12,99.27Z" style="fill:#263238"></path><path d="M352.22,98.09c-1.73-.23-2.06,3.24-.46,3.46S353.67,98.29,352.22,98.09Z" style="fill:#263238"></path><path d="M351.47,98.25c-.29.16-.59.47-.92.46s-.63-.42-.83-.8c0,0-.06,0-.06,0-.08.66.07,1.37.69,1.56s1-.35,1.28-1C351.67,98.38,351.59,98.19,351.47,98.25Z" style="fill:#263238"></path><path d="M358.51,109.28c-.26.25-.53.59-.92.62a3,3,0,0,1-1.16-.3s-.06,0,0,.06a1.44,1.44,0,0,0,1.36.61,1.13,1.13,0,0,0,.86-.94C358.63,109.27,358.55,109.25,358.51,109.28Z" style="fill:#263238"></path><path d="M354.31,105s-.35,1.59-.41,2.35c0,.07.18.12.44.16,0,0,0,0,0,0a3.62,3.62,0,0,0,3.6-1.08c.06-.07,0-.15-.1-.11a5.46,5.46,0,0,1-3.37.69c0-.22.69-2.71.57-2.72a6.78,6.78,0,0,0-1.76.25c.63-3.33,1.78-6.54,2.36-9.87a.11.11,0,0,0-.2-.06,54.26,54.26,0,0,0-3,10.52C352.39,105.6,354,105.15,354.31,105Z" style="fill:#263238"></path><path d="M376,104.4a6.57,6.57,0,0,1-3.66-5.35,17,17,0,0,1-6.95-5.63c.1.33.87,2.7,1.29,3.89-10.08-1.91-13.18-9.64-13.18-9.64a17.49,17.49,0,0,0-4.42,6.39s-.06-6.19,3.14-10.33a10,10,0,0,1,9.22-4.09A14.25,14.25,0,0,1,375.39,84C381.93,91.12,376,104.4,376,104.4Z" style="fill:#263238"></path><path d="M359.06,95.62a18.53,18.53,0,0,0,5.17,1.92s0,0,0,0A15.81,15.81,0,0,1,356.84,93a15.1,15.1,0,0,1-2.17-3,10.51,10.51,0,0,1-1.33-3.85.08.08,0,0,0-.16,0,12.58,12.58,0,0,0,.79,4,11.07,11.07,0,0,0,2.24,3.34,12.57,12.57,0,0,0,2.85,2.17" style="fill:#263238"></path><path d="M373.42,104.36s3.78-4.72,5.94-3.34-.9,8.37-3.59,9.18a2.69,2.69,0,0,1-3.5-1.67Z" style="fill:#f7a9a0"></path><path d="M378.43,103a0,0,0,0,1,0,.07c-1.89.63-3,2.28-3.77,4a1.48,1.48,0,0,1,2.24-.26s0,.11-.06.1a1.64,1.64,0,0,0-1.85.45,8,8,0,0,0-1,1.41c-.1.16-.39,0-.31-.13v0C373.85,106.25,375.89,103.08,378.43,103Z" style="fill:#263238"></path><path d="M390.86,132.49c9,13,18.4,31.93,19.25,46.91.41,7.32-12,14.47-16.69,12.43-11.05-4.8-26.61-16.23-32.86-23.92-2.21-2.71,19.5-22.38,21.28-19.09s2.87,5.22,4.58,6.45c.82.6-3.2-7.21-6.13-20.93C376.28,115.6,387.6,127.79,390.86,132.49Z" style="fill:#f7a9a0"></path><path d="M362.84,117.28s3.35-4.48.1-6.52-5.82,2.94-5.82,2.94Z" style="fill:#dd6a57"></path><rect x="346.26" y="112.29" width="6.75" height="39.37" transform="translate(575.74 429.54) rotate(-147.91)" style="fill:#C53F3F"></rect><rect x="355.85" y="115" width="7.89" height="1.56" transform="translate(603.1 405.02) rotate(-147.91)" style="fill:#37474f"></rect><rect x="354.93" y="116.47" width="7.89" height="1.57" transform="translate(600.62 407.24) rotate(-147.91)" style="fill:#37474f"></rect><path d="M336.32,146.86l-.43,5.47-.15,1.8,1.57-.91,4.74-2.77-.06-1.19-1.09.47-.06-1.19-1.09.47,0-1.18-1.1.46-.05-1.18-1.1.47,0-1.19Z" style="fill:#fff"></path><polygon points="335.89 152.32 335.74 154.13 337.31 153.22 335.89 152.32" style="fill:#37474f"></polygon><path d="M347,123.14c-1.9,2.85,5.51,6.93,5.51,6.93a6.27,6.27,0,0,0-4,1.45c-1.92,1.76,0,5.54,0,5.54a7.81,7.81,0,0,0-4,2.21c-1.67,1.87-.28,5.95-.28,5.95a6.83,6.83,0,0,0-2.3,4.17c-.47,4.36,5.11,8.14,8.11,11.16,3.21,3.23,9.37,6.2,11.81,8.55l20.83-18.57s-7.57-17.23-13.8-21.7C365.37,126.34,349.88,118.79,347,123.14Z" style="fill:#f7a9a0"></path><path d="M352.62,130c4.44,1.38,8.55,3.81,12.49,6.2.09.06,0,.19-.08.14-3.89-2.43-8.53-3.87-12.5-6.13A.12.12,0,0,1,352.62,130Z" style="fill:#263238"></path><path d="M348.75,136.83a12,12,0,0,1,2.75,1.6c.93.63,1.85,1.28,2.76,1.94q2.73,2,5.36,4.1c.07.07,0,.2-.09.14-1.82-1.32-3.65-2.6-5.52-3.84l-2.83-1.84a14.61,14.61,0,0,1-2.59-1.83A.16.16,0,0,1,348.75,136.83Z" style="fill:#263238"></path><path d="M344.25,145.28a8.64,8.64,0,0,1,2.39,1.56c.81.62,1.63,1.24,2.46,1.85,1.65,1.22,3.29,2.44,5,3.61.09.06,0,.19-.08.13-1.72-1.17-3.46-2.32-5.17-3.51q-1.26-.87-2.52-1.77a8,8,0,0,1-2.13-1.79A.06.06,0,0,1,344.25,145.28Z" style="fill:#263238"></path><path d="M370.05,129.84a12.82,12.82,0,0,0-6.59-4c-.11,0-.11,0,0,.07a30.25,30.25,0,0,1,6.55,4S370.08,129.87,370.05,129.84Z" style="fill:#263238"></path><path d="M359.65,171.9l22.51-24,3.82,6.34s-4.77-12.32-6.43-20.14-1.79-17,8.63-5.64c10.22,11.17,23.46,42.06,23.13,50.7s-11.11,14.3-16.67,13.53S359.65,171.9,359.65,171.9Z" style="fill:#ebebeb"></path><path d="M365.85,174.15c3.15-3.22,15.55-16.9,18-20,.18-.21.08-.37-.13-.17-9.67,9.44-15.09,16.76-18,20.08C365.66,174.11,365.77,174.24,365.85,174.15Z" style="fill:#263238"></path><path d="M403.62,177c-1.35-2.14-2.9-4.18-4.38-6.24s-3-4.13-4.55-6.15-3.23-4-4.89-5.94c-.82-1-2.43-2.91-3.27-3.89s-.9-.74-.11.33,2.3,3,3.06,4c1.48,2,2.94,4.06,4.47,6.05s3.13,3.95,4.7,5.92,3.13,4.06,4.82,6C403.54,177.15,403.68,177.08,403.62,177Z" style="fill:#263238"></path><path d="M383.76,147.21c-.91-2.35-2-4.67-2.7-7.09a.08.08,0,0,0-.15,0c.53,1.59,1,3.21,1.45,4.81a2.14,2.14,0,0,1-.13-.19c-.4-.61-.77-1.23-1.15-1.86-.05-.09-.18,0-.13.08.35.65.69,1.29,1,1.94a8.14,8.14,0,0,0,.86,1.52c.11.35.22.7.34,1a53.92,53.92,0,0,0,3,6.9c.07.13.29,0,.25-.12C385.6,151.91,384.67,149.55,383.76,147.21Z" style="fill:#263238"></path><path d="M382.33,147.82c-.08-.12-.63.5-.89.83-.05.06,0,.08.08,0a5.81,5.81,0,0,0,.57-.4c.59,1.08,3.83,6.12,4.05,6.33s.19,0,.14-.13C386.08,153.91,383.05,148.92,382.33,147.82Z" style="fill:#263238"></path><path d="M386.81,189c-6.94-4.67-14-9.17-21.22-13.41-2-1.16-3.85-2.42-5.8-3.64.21-.15,2-2.24,2.09-2.31a0,0,0,0,0-.06-.06c-.21.19-2.56,2.25-2.72,2.49s7.25,4.75,10.73,7,7.12,4.4,10.72,6.52q3.07,1.81,6.19,3.53C386.82,189.2,386.89,189.07,386.81,189Z" style="fill:#263238"></path><polygon points="321.17 200.99 356.62 200.47 339.41 155.23 303.95 155.74 321.17 200.99" style="fill:#ebebeb"></polygon><polygon points="318.74 201.02 354.2 200.51 336.98 155.26 301.53 155.78 318.74 201.02" style="fill:#C53F3F"></polygon><path d="M333.22,155.32a3.16,3.16,0,0,0,1.54,1.83c.34.18.43-.27.09-.43a2.37,2.37,0,0,1-1-1.16,1.25,1.25,0,0,1-.09-.25,1.72,1.72,0,0,1-.07-.86.67.67,0,0,1,.2-.32l0,0,0,0H334a.44.44,0,0,1,.25,0,1,1,0,0,1,.41.25,4.4,4.4,0,0,1,.52.73l0,.06a.41.41,0,0,1,.05.09.14.14,0,0,1,0,.06h.5a3.39,3.39,0,0,0-.49-.86,1.92,1.92,0,0,0-1.37-.85.79.79,0,0,0-.79.74A2,2,0,0,0,333.22,155.32Z" style="fill:#455a64"></path><path d="M330.44,155.36a3.14,3.14,0,0,0,1.55,1.83c.34.18.42-.27.09-.43A2.35,2.35,0,0,1,331,155.6a2.41,2.41,0,0,1-.08-.25,1.61,1.61,0,0,1-.07-.86.59.59,0,0,1,.19-.32l0,0,0,0h.07a.4.4,0,0,1,.24,0,1,1,0,0,1,.42.25,2.26,2.26,0,0,1,.36.47c.06.08.1.17.16.26l0,.06a.36.36,0,0,1,0,.09s0,0,0,.06h.5a3.72,3.72,0,0,0-.49-.86,1.94,1.94,0,0,0-1.38-.85.77.77,0,0,0-.78.74A2.12,2.12,0,0,0,330.44,155.36Z" style="fill:#455a64"></path><path d="M327.67,155.4a3.16,3.16,0,0,0,1.54,1.83c.34.18.43-.27.09-.43a2.37,2.37,0,0,1-1-1.16,1.25,1.25,0,0,1-.09-.25,1.72,1.72,0,0,1-.07-.86.67.67,0,0,1,.2-.32l0,0s0,0,0,0h.07a.44.44,0,0,1,.25,0,1.11,1.11,0,0,1,.41.25,4.4,4.4,0,0,1,.52.73l0,.06a.41.41,0,0,1,.05.09s0,0,0,.06h.5a3.39,3.39,0,0,0-.49-.86,1.92,1.92,0,0,0-1.37-.85.79.79,0,0,0-.79.74A2,2,0,0,0,327.67,155.4Z" style="fill:#455a64"></path><path d="M324.89,155.44a3.14,3.14,0,0,0,1.55,1.83c.34.18.42-.27.09-.43a2.35,2.35,0,0,1-1-1.16,2.41,2.41,0,0,1-.08-.25,1.61,1.61,0,0,1-.07-.86.59.59,0,0,1,.19-.32l0,0,0,0h.07a.4.4,0,0,1,.24,0,1.14,1.14,0,0,1,.42.25,2.26,2.26,0,0,1,.36.47,2.2,2.2,0,0,1,.15.26l0,.06a.36.36,0,0,1,0,.09s0,0,0,.06h.51a3.72,3.72,0,0,0-.49-.86,1.94,1.94,0,0,0-1.38-.85.77.77,0,0,0-.78.74A2.12,2.12,0,0,0,324.89,155.44Z" style="fill:#455a64"></path><path d="M322.12,155.48a3.16,3.16,0,0,0,1.54,1.83c.34.18.43-.27.09-.43a2.37,2.37,0,0,1-1-1.16,1.25,1.25,0,0,1-.09-.25,1.72,1.72,0,0,1-.07-.86.67.67,0,0,1,.2-.32l0,0,0,0h.07a.44.44,0,0,1,.25,0,1.11,1.11,0,0,1,.41.25,4.4,4.4,0,0,1,.52.73l0,.06a.41.41,0,0,1,.05.09s0,0,0,.06h.5a3.39,3.39,0,0,0-.49-.86,1.92,1.92,0,0,0-1.37-.85.79.79,0,0,0-.79.74A2,2,0,0,0,322.12,155.48Z" style="fill:#455a64"></path><path d="M319.34,155.52a3.14,3.14,0,0,0,1.55,1.83c.34.18.42-.27.09-.43a2.31,2.31,0,0,1-1.05-1.16l-.09-.25a1.71,1.71,0,0,1-.06-.86.59.59,0,0,1,.19-.32l0,0,0,0h.06a.43.43,0,0,1,.25,0,1.14,1.14,0,0,1,.42.25,2.26,2.26,0,0,1,.36.47,2.2,2.2,0,0,1,.15.26l0,.06a.36.36,0,0,1,0,.09s0,0,0,.06h.51a3.94,3.94,0,0,0-.49-.86,1.94,1.94,0,0,0-1.38-.85.77.77,0,0,0-.78.74A2.12,2.12,0,0,0,319.34,155.52Z" style="fill:#455a64"></path><path d="M316.57,155.56a3.16,3.16,0,0,0,1.54,1.83c.34.18.43-.27.09-.43a2.33,2.33,0,0,1-1-1.16,1.25,1.25,0,0,1-.09-.25,1.72,1.72,0,0,1-.07-.86.67.67,0,0,1,.2-.32l0,0,0,0h.07a.44.44,0,0,1,.25,0,1.11,1.11,0,0,1,.41.25,4.4,4.4,0,0,1,.52.73l0,.06a.41.41,0,0,1,.05.09s0,0,0,.06h.5a3.57,3.57,0,0,0-.49-.86,1.92,1.92,0,0,0-1.37-.85.79.79,0,0,0-.79.74A2,2,0,0,0,316.57,155.56Z" style="fill:#455a64"></path><path d="M313.79,155.6a3.14,3.14,0,0,0,1.55,1.83c.34.18.42-.27.09-.43a2.33,2.33,0,0,1-1.05-1.15l-.09-.26a1.71,1.71,0,0,1-.06-.86.59.59,0,0,1,.19-.32l0,0,0,0h.06a.43.43,0,0,1,.25,0,1,1,0,0,1,.42.26,2,2,0,0,1,.36.46,2.2,2.2,0,0,1,.15.26l0,.06a.36.36,0,0,1,0,.09s0,0,0,.06h.51a3.78,3.78,0,0,0-.49-.87,1.94,1.94,0,0,0-1.38-.85.77.77,0,0,0-.78.74A2.12,2.12,0,0,0,313.79,155.6Z" style="fill:#455a64"></path><path d="M311,155.64a3.16,3.16,0,0,0,1.54,1.83c.34.18.43-.27.09-.43a2.35,2.35,0,0,1-1-1.15,1.14,1.14,0,0,1-.09-.26,1.72,1.72,0,0,1-.07-.86.6.6,0,0,1,.2-.31l0,0,0,0h.07a.44.44,0,0,1,.25,0,1,1,0,0,1,.41.26,2,2,0,0,1,.36.46,2.26,2.26,0,0,1,.16.26l0,.06a.41.41,0,0,1,0,.09s0,0,0,.06h.5a3.62,3.62,0,0,0-.49-.87,1.92,1.92,0,0,0-1.37-.85.79.79,0,0,0-.79.74A2,2,0,0,0,311,155.64Z" style="fill:#455a64"></path><path d="M308.24,155.68a3.14,3.14,0,0,0,1.55,1.83c.34.18.42-.27.09-.43a2.33,2.33,0,0,1-1.05-1.15l-.09-.25a1.76,1.76,0,0,1-.06-.87.53.53,0,0,1,.19-.31l0,0,0,0H309a.43.43,0,0,1,.25,0,1,1,0,0,1,.42.26,2,2,0,0,1,.36.46,2.2,2.2,0,0,1,.15.26l0,.06a.36.36,0,0,1,0,.09s0,0,0,.06h.51a4,4,0,0,0-.49-.87,1.94,1.94,0,0,0-1.38-.85.77.77,0,0,0-.78.74A2.12,2.12,0,0,0,308.24,155.68Z" style="fill:#455a64"></path><path d="M305.47,155.72a3.16,3.16,0,0,0,1.54,1.83c.34.18.43-.27.09-.43a2.16,2.16,0,0,1-1.13-1.4,1.77,1.77,0,0,1-.07-.87.54.54,0,0,1,.2-.31l0,0,0,0h.07a.44.44,0,0,1,.25,0,1,1,0,0,1,.41.26,2,2,0,0,1,.36.46,2.26,2.26,0,0,1,.16.26l0,.06a.41.41,0,0,1,.05.09s0,0,0,.06h.5a3.62,3.62,0,0,0-.49-.87,1.92,1.92,0,0,0-1.37-.85.79.79,0,0,0-.79.74A2,2,0,0,0,305.47,155.72Z" style="fill:#455a64"></path><path d="M302.69,155.76a3.14,3.14,0,0,0,1.55,1.83c.34.18.42-.27.09-.43a2.33,2.33,0,0,1-1.05-1.15l-.09-.25a1.76,1.76,0,0,1-.06-.87.53.53,0,0,1,.19-.31l0,0s0,0,0,0h.06a.43.43,0,0,1,.25,0,1,1,0,0,1,.41.26,1.78,1.78,0,0,1,.37.46,2.2,2.2,0,0,1,.15.26l0,.06a.36.36,0,0,1,0,.09s0,0,0,.06h.51a4,4,0,0,0-.49-.87,1.94,1.94,0,0,0-1.38-.85.77.77,0,0,0-.78.74A2.12,2.12,0,0,0,302.69,155.76Z" style="fill:#455a64"></path><path d="M303.84,166.82c-1.41,4-5.48,9.26-5.52,12.43a3.63,3.63,0,0,0,2.41,3.6s-3,1.89-2.52,4.77c.22,1.49,2.79,2.43,2.79,2.43a4.33,4.33,0,0,0-1.76,4.15c.43,2,2.94,2.67,2.94,2.67s-1.49,2.58-.39,4.5c2.24,3.89,19.89,2,21.93-4.78.95-3.17-3.34-2.47-3.34-2.47s5.93-2.49,5.63-6.14-5.81-2.41-5.81-2.41,5.72-2.46,5-6.21c-.72-3.91-6-1.73-6-1.73s3.64-3.08,2.46-5.83c-2-4.54-8.76,2.16-12.74,1.65l-2.82-6.17Z" style="fill:#f7a9a0"></path><path d="M300.89,172.76c1-3.93-4.17-8.09-3.75-12,.57-5.26,6.9-.84,9,6.5l.62,6Z" style="fill:#f7a9a0"></path><path d="M302.56,197a0,0,0,0,0,0,.09,30.8,30.8,0,0,0,18.07-3c.18-.1.1-.42-.11-.36A62.78,62.78,0,0,1,302.56,197Z" style="fill:#263238"></path><path d="M300.91,190.1c-.06,0-.06.11,0,.12a28.87,28.87,0,0,0,19.51-4.51c.2-.14.23-.46,0-.32C316.4,187.78,306.65,190,300.91,190.1Z" style="fill:#263238"></path><path d="M319.54,177.21c-5.66,3.64-11.92,5.11-18.56,5.69-.09,0-.07.13,0,.14,3.32.6,7.52-.21,10.73-1.12a17.7,17.7,0,0,0,7.95-4.51C319.76,177.32,319.67,177.13,319.54,177.21Z" style="fill:#263238"></path></g></svg>